<svg width="100" height="61.4" viewBox="0 0 102 62" fill="none" xmlns="http://www.w3.org/2000/svg">
<g clip-path="url(#clip0_17_892)">
<path d="M3.76704 58.1057L2.64373 60.9618C2.40278 61.58 1.97857 61.8891 1.37111 61.8891C1.13695 61.8891 0.899389 61.832 0.655045 61.7144C0.217262 61.4994 -0.00332642 61.1835 -0.00332642 60.7669C-0.00332642 60.572 0.0441849 60.3603 0.135814 60.1318L4.59848 49.1242C4.99554 48.1431 5.63016 47.6525 6.50912 47.6525C7.38808 47.6525 8.03627 48.1431 8.44011 49.1242L12.9028 60.1318C12.9876 60.3536 13.0317 60.5686 13.0317 60.7837C13.0317 61.1835 12.8213 61.4859 12.4005 61.6943C12.1528 61.8219 11.9017 61.8858 11.6505 61.8858C11.0566 61.8858 10.6392 61.5766 10.3983 60.9584L9.27495 58.1023H3.76704V58.1057ZM6.52269 50.2599L4.54758 55.9015H8.48084L6.52269 50.2599Z" fill="#1D1D1B"/>
<path d="M17.3722 56.4526V60.871C17.3722 61.1331 17.2839 61.3549 17.1109 61.533C16.8767 61.7715 16.5611 61.8925 16.164 61.8925C15.6923 61.8925 15.3496 61.7346 15.1324 61.4154C15.0272 61.2608 14.9762 61.0827 14.9762 60.8744V52.7061C14.9762 52.4608 15.0543 52.2525 15.207 52.0811C15.431 51.8493 15.7296 51.7317 16.1063 51.7317C16.5815 51.7317 16.9174 51.9097 17.1075 52.2659C17.1821 52.3936 17.2195 52.5414 17.2195 52.7061V53.6704C17.5351 53.1328 17.8507 52.7162 18.1663 52.4205C18.7466 51.8929 19.4423 51.6309 20.2534 51.6309C20.8914 51.6309 21.4378 51.8291 21.8959 52.229C22.2251 52.5179 22.388 52.8438 22.388 53.2134C22.388 53.4755 22.2998 53.7208 22.1199 53.9493C21.8722 54.2618 21.5532 54.4164 21.1629 54.4164C20.9084 54.4164 20.6946 54.3492 20.5215 54.2148C20.2941 54.0367 20.026 53.9493 19.724 53.9493C18.8009 53.9493 18.017 54.786 17.3654 56.4559L17.3722 56.4526Z" fill="#1D1D1B"/>
<path d="M30.9095 53.0421L30.9638 52.444C31.0079 51.94 31.3371 51.6913 31.9581 51.6913C32.4536 51.6913 32.793 51.8795 32.9796 52.2525C33.0407 52.3802 33.0713 52.5246 33.0713 52.6859V60.8912C33.0713 61.0995 33.0238 61.2843 32.9321 61.4423C32.7455 61.7413 32.4367 61.8925 32.0057 61.8925C31.405 61.8925 31.0588 61.5834 30.9672 60.9651L30.8654 60.3301C30.2545 61.4221 29.2059 61.9664 27.7195 61.9664C26.1346 61.9664 24.9163 61.3347 24.0645 60.0747C23.457 59.1809 23.155 58.0956 23.155 56.8222C23.155 55.6159 23.4638 54.5642 24.0815 53.6704C24.5871 52.9279 25.2455 52.3902 26.0498 52.0542C26.6063 51.8157 27.1901 51.6947 27.8043 51.6947C29.1787 51.6947 30.2138 52.145 30.9129 53.0455L30.9095 53.0421ZM30.7161 56.9734V56.2375C30.7161 55.5588 30.4615 54.9641 29.9559 54.4567C29.4434 53.9426 28.8496 53.6839 28.1742 53.6839C27.3937 53.6839 26.7658 54.0064 26.2907 54.6482C25.8699 55.2194 25.6595 55.9385 25.6595 56.8087C25.6595 57.5547 25.8088 58.1964 26.1041 58.7273C26.5622 59.5405 27.2443 59.9504 28.1539 59.9504C28.7172 59.9504 29.2296 59.7387 29.6946 59.3153C30.3733 58.6971 30.7161 57.9142 30.7161 56.9734Z" fill="#1D1D1B"/>
<path d="M38.6199 56.4526V60.871C38.6199 61.1331 38.5317 61.3549 38.3586 61.533C38.1244 61.7715 37.8088 61.8925 37.4118 61.8925C36.94 61.8925 36.5973 61.7346 36.3801 61.4154C36.2749 61.2608 36.224 61.0827 36.224 60.8744V52.7061C36.224 52.4608 36.302 52.2525 36.4548 52.0811C36.6787 51.8493 36.9774 51.7317 37.3541 51.7317C37.8292 51.7317 38.1652 51.9097 38.3552 52.2659C38.4299 52.3936 38.4672 52.5414 38.4672 52.7061V53.6704C38.7828 53.1328 39.0984 52.7162 39.414 52.4205C39.9943 51.8929 40.69 51.6309 41.5011 51.6309C42.1391 51.6309 42.6855 51.8291 43.1437 52.229C43.4729 52.5179 43.6357 52.8438 43.6357 53.2134C43.6357 53.4755 43.5475 53.7208 43.3677 53.9493C43.1199 54.2618 42.8009 54.4164 42.4106 54.4164C42.1561 54.4164 41.9423 54.3492 41.7692 54.2148C41.5419 54.0367 41.2738 53.9493 40.9717 53.9493C40.0486 53.9493 39.2647 54.786 38.6131 56.4559L38.6199 56.4526Z" fill="#1D1D1B"/>
<path d="M52.1606 53.0421L52.2149 52.444C52.2591 51.94 52.5882 51.6913 53.2093 51.6913C53.7048 51.6913 54.0441 51.8795 54.2308 52.2525C54.2919 52.3802 54.3224 52.5246 54.3224 52.6859V60.8912C54.3224 61.0995 54.2749 61.2843 54.1833 61.4423C53.9966 61.7413 53.6878 61.8925 53.2568 61.8925C52.6561 61.8925 52.31 61.5834 52.2183 60.9651L52.1165 60.3301C51.5057 61.4221 50.457 61.9664 48.9706 61.9664C47.3857 61.9664 46.1674 61.3347 45.3156 60.0747C44.7081 59.1809 44.4061 58.0956 44.4061 56.8222C44.4061 55.6159 44.7149 54.5642 45.3326 53.6704C45.8382 52.9279 46.4966 52.3902 47.3009 52.0542C47.8575 51.8157 48.4412 51.6947 49.0554 51.6947C50.4299 51.6947 51.4649 52.145 52.164 53.0455L52.1606 53.0421ZM51.9672 56.9734V56.2375C51.9672 55.5588 51.7127 54.9641 51.207 54.4567C50.6946 53.9426 50.1007 53.6839 49.4253 53.6839C48.6448 53.6839 48.017 54.0064 47.5419 54.6482C47.121 55.2194 46.9106 55.9385 46.9106 56.8087C46.9106 57.5547 47.06 58.1964 47.3552 58.7273C47.8133 59.5405 48.4955 59.9504 49.405 59.9504C49.9683 59.9504 50.4808 59.7387 50.9457 59.3153C51.6244 58.6971 51.9672 57.9142 51.9672 56.9734Z" fill="#1D1D1B"/>
<path d="M59.8167 47.9448H62.7013C64.4321 47.9448 65.8982 48.3178 67.0995 49.0671C68.009 49.6249 68.7183 50.3842 69.224 51.3452C69.7568 52.3566 70.0215 53.5057 70.0215 54.7893C70.0215 56.5231 69.5532 57.9881 68.6199 59.1809C67.3201 60.8475 65.3212 61.6808 62.6267 61.6808H59.8133C58.3541 61.6808 57.6244 60.9685 57.6244 59.5404V50.0852C57.6244 48.6572 58.3541 47.9448 59.8133 47.9448H59.8167ZM60.2341 50.5825V59.0263C60.2341 59.3153 60.3869 59.4598 60.6889 59.4598H62.267C63.5396 59.4598 64.5373 59.2481 65.2534 58.8247C66.5837 58.0284 67.2489 56.6877 67.2489 54.7994C67.2489 53.7208 67.0079 52.7968 66.526 52.0239C65.9491 51.1066 65.1414 50.5321 64.0961 50.307C63.6007 50.2028 63.0102 50.1524 62.3246 50.1524H60.6923C60.3903 50.1524 60.2375 50.2969 60.2375 50.5858L60.2341 50.5825Z" fill="#1D1D1B"/>
<path d="M74.2195 57.4001C74.2568 58.1427 74.5215 58.7408 75.017 59.2011C75.5566 59.7051 76.2353 59.9537 77.06 59.9537C77.9932 59.9537 78.7907 59.6177 79.4525 58.9424C79.6324 58.7542 79.8428 58.6568 80.0837 58.6568C80.3552 58.6568 80.6063 58.771 80.8337 58.9961C81.0441 59.2112 81.1493 59.4632 81.1493 59.7589C81.1493 60.0949 80.9796 60.4242 80.6403 60.7434C79.7545 61.5834 78.5294 62.0034 76.9649 62.0034C75.6109 62.0034 74.474 61.6304 73.5577 60.8811C72.3529 59.9067 71.7489 58.556 71.7489 56.8289C71.7489 55.5487 72.0882 54.4533 72.7704 53.5394C73.7104 52.2726 75.0305 51.6376 76.7342 51.6376C78.1391 51.6376 79.2964 52.1483 80.2059 53.1731C80.9796 54.0367 81.3665 55.0077 81.3665 56.0863C81.3665 56.5634 81.2783 56.8994 81.0984 57.0876C80.9016 57.2959 80.5792 57.4001 80.1346 57.4001H74.2229H74.2195ZM74.2568 55.5521H78.6278C78.8179 55.5521 78.9163 55.4748 78.9163 55.3236C78.9163 54.9943 78.7772 54.6583 78.4989 54.3223C78.0713 53.8015 77.474 53.5427 76.707 53.5427C76.2489 53.5427 75.8179 53.6603 75.4174 53.8922C74.7692 54.2651 74.3824 54.8196 74.2568 55.5554V55.5521Z" fill="#1D1D1B"/>
<path d="M87.4038 58.6937L89.871 52.4473C90.0611 51.9635 90.4072 51.7216 90.9027 51.7216C91.1369 51.7216 91.371 51.782 91.5984 51.9064C92.0498 52.1516 92.2772 52.4843 92.2772 52.9077C92.2772 53.0622 92.2432 53.2134 92.1753 53.368L88.8903 60.8744C88.5814 61.58 88.0894 61.9294 87.414 61.9294C86.7387 61.9294 86.2296 61.5766 85.9208 60.8744L82.6357 53.368C82.5679 53.2134 82.5339 53.0656 82.5339 52.9177C82.5339 52.4776 82.7579 52.1382 83.2025 51.9064C83.4299 51.7888 83.664 51.7316 83.8982 51.7316C84.4005 51.7316 84.7466 51.9702 84.9367 52.4473L87.4038 58.6937Z" fill="#1D1D1B"/>
<path d="M97.741 51.6376C99.0848 51.6376 100.161 51.9165 100.972 52.4742C101.41 52.7733 101.63 53.1294 101.63 53.5394C101.63 53.7779 101.555 54.0031 101.406 54.2114C101.202 54.4869 100.924 54.6247 100.571 54.6247C100.344 54.6247 100.089 54.5172 99.8111 54.3021C99.1799 53.8183 98.4774 53.5763 97.7036 53.5763C96.7025 53.5763 96.2002 53.8586 96.2002 54.4231C96.2002 54.7524 96.3801 55.0111 96.7398 55.1959C96.8586 55.2497 97.0588 55.3236 97.3439 55.4177C99.0204 55.925 100.055 56.2778 100.452 56.4727C101.484 56.9801 102.003 57.7932 102.003 58.9088C102.003 59.9437 101.589 60.7366 100.761 61.2877C100.038 61.7648 99.0577 62.0034 97.819 62.0034C96.4038 62.0034 95.2364 61.6842 94.3201 61.0491C93.7262 60.6325 93.431 60.199 93.431 59.7454C93.431 59.5304 93.5023 59.3221 93.6448 59.1204C93.8416 58.8449 94.1063 58.7072 94.4321 58.7072C94.6934 58.7072 94.9378 58.8147 95.1652 59.0297C95.8575 59.6849 96.7364 60.0142 97.802 60.0142C98.8677 60.0142 99.4615 59.7185 99.4615 59.1339C99.4615 58.7374 99.1833 58.4014 98.6267 58.1326C98.267 57.9679 97.405 57.6756 96.0373 57.259C94.5509 56.8121 93.8111 55.9149 93.8111 54.5676C93.8111 53.5125 94.3201 52.7162 95.3416 52.1685C95.9898 51.819 96.7907 51.6443 97.7443 51.6443L97.741 51.6376Z" fill="#1D1D1B"/>
<path d="M65.8507 8.86723C66.2749 9.12932 66.6957 9.40148 67.1063 9.68709C67.3507 9.85845 67.5916 10.0298 67.8292 10.2113C67.8801 10.2482 67.931 10.2885 67.9785 10.3255C67.8088 10.1978 67.9819 10.3289 68.0226 10.3625C68.1686 10.4767 68.3111 10.5909 68.4536 10.7086C69.6652 11.6964 70.7851 12.7952 71.7862 13.9913C72.7873 15.1875 73.7274 16.6559 74.5181 18.1108C75.1629 19.2969 75.7296 20.4427 76.1572 21.575C77.4231 24.925 77.7557 28.4396 76.5102 31.8804C76.2624 32.5624 75.957 33.2177 75.5532 33.9166C75.3801 34.2156 75.1968 34.5079 75.0068 34.7935C74.9016 34.9481 74.793 35.1027 74.6844 35.2539C74.6301 35.3278 74.5758 35.4017 74.5181 35.4756C74.4706 35.5361 74.474 35.5327 74.5215 35.4756C74.4774 35.5327 74.4299 35.5899 74.3858 35.647C73.9514 36.1812 73.4864 36.6852 72.9876 37.1624C72.7568 37.3808 72.5226 37.5958 72.2817 37.8042C72.1595 37.9083 72.0339 38.0125 71.9084 38.1166C71.8575 38.157 71.81 38.1973 71.7591 38.2376C71.7319 38.2578 71.4706 38.4594 71.5724 38.3854C71.7014 38.288 71.457 38.4694 71.4604 38.4694C71.3858 38.5232 71.3111 38.577 71.2364 38.6307C71.1041 38.7248 70.9683 38.8189 70.8326 38.913C70.5645 39.0944 70.2896 39.2725 70.0113 39.4405C69.5464 39.7228 69.0713 39.9882 68.586 40.2335C68.2127 40.4216 67.836 40.593 67.4525 40.761C67.2115 40.8685 67.7308 40.6501 67.4355 40.7677C67.3778 40.7913 67.3201 40.8148 67.2658 40.8349C67.164 40.8753 67.0622 40.9122 66.9604 40.9525L68.2059 42.5553C69.1154 41.0769 69.9536 39.5581 70.612 37.9554C71.0226 36.9574 71.3416 35.9225 71.4265 34.8439C71.4842 34.1114 71.3688 33.3487 71.0192 32.6935C70.4729 31.6619 69.4039 31.3159 68.4536 30.7648C67.6663 30.3112 66.9638 29.6795 66.414 28.9806C66.1663 28.6648 65.9287 28.2918 65.7217 27.9289C65.6267 27.7643 65.5385 27.5963 65.4536 27.4249C65.4129 27.3443 65.3756 27.2636 65.3382 27.183C65.3179 27.1393 65.1753 26.8134 65.2704 27.0351C65.0396 26.4908 64.5407 26.101 63.9129 26.2724C63.3937 26.4135 62.9118 27.0687 63.1425 27.6164C63.7805 29.1251 64.6527 30.5262 65.9084 31.6115C66.5362 32.1559 67.2217 32.6095 67.9683 32.9791C68.1991 33.0933 68.4367 33.2009 68.6606 33.3319C68.7082 33.3588 68.7557 33.3957 68.8032 33.4193C69.0306 33.5369 68.6946 33.3151 68.81 33.4193C68.8677 33.4697 69.1561 33.7922 69.0068 33.6007C68.8575 33.4092 69.0577 33.6914 69.0984 33.7586C69.1256 33.8023 69.2138 34.014 69.1256 33.7989C69.0373 33.5839 69.1358 33.8426 69.1527 33.8964C69.1901 34.014 69.1934 34.1484 69.2342 34.2626C69.207 34.1854 69.2172 33.9938 69.224 34.2391C69.224 34.3265 69.2342 34.4138 69.2342 34.5012C69.2342 34.6658 69.2172 34.8305 69.207 34.9951C69.1867 35.2471 69.2545 34.7532 69.1968 35.059C69.1765 35.1732 69.1561 35.2908 69.129 35.4051C69.0204 35.899 68.8643 36.3862 68.6878 36.86C68.4536 37.4883 68.2025 38.0259 67.836 38.7483C67.3643 39.669 66.845 40.5661 66.302 41.4498C65.8303 42.2159 66.6244 43.3953 67.5475 43.0526C71.9898 41.4162 76.0656 38.1872 78.0645 33.8662C79.7579 30.2037 79.9005 26.1414 78.733 22.3042C78.2749 20.7888 77.6335 19.3271 76.9106 17.9226C76.1878 16.5181 75.3631 15.08 74.3959 13.7763C72.3801 11.0647 69.8552 8.76979 66.9672 6.99231C65.7591 6.24974 64.6493 8.1381 65.8541 8.87731L65.8507 8.86723Z" fill="#1D1D1B"/>
<path d="M67.2217 31.4906C66.9842 31.7426 66.7364 31.9811 66.4785 32.2096C66.3122 32.3541 66.1425 32.4952 65.9695 32.633C66.1086 32.5255 65.905 32.68 65.8609 32.7103C65.7421 32.7976 65.6233 32.8783 65.5011 32.9589C64.4796 33.6376 63.448 34.0879 62.2534 34.3601C61.6358 34.5012 61.0385 34.565 60.4005 34.5717C60.0882 34.5751 59.776 34.565 59.4638 34.5415C59.3349 34.5314 59.2059 34.518 59.0769 34.5045C58.948 34.4911 58.9378 34.4877 58.7477 34.4575C58.2115 34.3668 57.6821 34.2357 57.1629 34.0744C56.9287 34.0005 56.698 33.9199 56.4706 33.8325C56.379 33.7989 56.2873 33.762 56.1957 33.725C56.4061 33.8124 56.0871 33.678 56.0328 33.6511C55.4525 33.389 54.8925 33.0832 54.3631 32.7304C53.8711 32.4011 53.1414 32.6363 52.853 33.1235C52.5339 33.6612 52.7545 34.2861 53.25 34.6188C57.0713 37.1792 62.2466 37.5051 66.224 35.0993C67.1606 34.5314 68.0294 33.8325 68.7828 33.0395C69.1901 32.6095 69.2138 31.9206 68.7828 31.4939C68.3518 31.0672 67.6324 31.0638 67.2217 31.4939V31.4906Z" fill="#1D1D1B"/>
<path d="M60.9638 27.2065C62.5792 26.5009 64.0554 25.513 65.3416 24.3168C66.6855 23.0669 67.8971 21.5918 68.6165 19.8983C69.1256 18.6954 69.2986 17.4993 69.1527 16.2123C68.9593 14.5424 68.5995 12.8926 68.267 11.2462C68.0328 10.0869 67.8428 8.89748 67.5102 7.75841C67.1776 6.61935 66.3665 5.4702 65.4977 4.59659C63.7738 2.86615 61.4762 1.75397 59.1719 0.991233C56.6538 0.157935 53.9932 -0.174711 51.3495 0.0907341C48.2443 0.403221 45.2715 1.38436 42.4921 2.77543C38.1482 4.95275 34.4016 8.0709 31.6459 12.0627C30.0882 14.3173 28.9072 16.7936 27.94 19.3473C26.7523 22.4822 25.9548 25.7079 25.6222 29.0411C25.5543 29.7165 25.5068 30.3952 25.4796 31.0706C25.4559 31.6619 26.0057 32.1626 26.5826 32.1626C27.2002 32.1626 27.6584 31.6619 27.6855 31.0706C27.8213 27.8886 28.3778 24.841 29.4095 21.7531C29.7726 20.6745 30.1731 19.6027 30.6143 18.5543C30.638 18.4972 30.6618 18.4401 30.6855 18.3829C30.6041 18.5745 30.6719 18.4199 30.6855 18.3829C30.7432 18.2485 30.8043 18.1141 30.862 17.9797C30.9943 17.6841 31.1301 17.3884 31.2726 17.096C31.5713 16.4812 31.8869 15.873 32.2262 15.2782C33.7602 12.5801 35.6912 10.2012 38.0973 8.19858C38.2602 8.06082 38.4265 7.92978 38.5962 7.79537C38.6471 7.75505 38.6946 7.71809 38.7455 7.67777C38.8303 7.61057 38.5181 7.84913 38.7489 7.67441C38.8982 7.56017 39.0509 7.44929 39.2036 7.3384C39.9808 6.77391 40.7851 6.24638 41.6131 5.75245C46.3473 2.93335 51.9604 1.24996 57.4412 2.75527C58.1335 2.94343 58.8156 3.1652 59.4876 3.42056C59.6029 3.46424 59.7149 3.51128 59.8303 3.55497C59.888 3.57849 60.0713 3.65577 59.8405 3.55497C59.8948 3.57849 59.9457 3.59865 60 3.62217C60.2647 3.73641 60.5226 3.85737 60.7805 3.98169C61.3167 4.24378 61.8394 4.53611 62.3416 4.85867C62.5792 5.01324 62.8133 5.17452 63.0407 5.34588C63.1968 5.46348 62.8473 5.1846 63.0984 5.39292C63.1493 5.4366 63.2036 5.47692 63.2545 5.52061C63.3835 5.62813 63.5124 5.73901 63.638 5.85661C63.862 6.06494 64.0792 6.27998 64.2794 6.51183C64.371 6.61263 64.4593 6.71679 64.5441 6.82431C64.4321 6.68319 64.5407 6.82095 64.5577 6.84783C64.6154 6.93183 64.6765 7.01248 64.7342 7.09984C64.9072 7.3552 65.0633 7.62401 65.1991 7.90289C65.2296 7.96674 65.2602 8.02722 65.2873 8.09106C65.2093 7.91969 65.3043 8.12466 65.3179 8.16834C65.3314 8.21202 65.3484 8.2557 65.362 8.29938C65.4638 8.62867 65.5283 8.9714 65.5995 9.3074C65.9491 10.8866 66.2681 12.4726 66.5701 14.0619C66.6414 14.4281 66.7093 14.791 66.7738 15.1573C66.8009 15.3186 66.8281 15.4799 66.8552 15.6411C66.8688 15.7251 66.8824 15.8091 66.8959 15.8931C66.8993 15.9234 66.9366 16.1888 66.9163 16.0343C66.8925 15.8663 66.9299 16.1619 66.9333 16.1619C66.94 16.2191 66.9468 16.2762 66.9536 16.3367C66.9672 16.4576 66.9774 16.582 66.9876 16.7063C67.0045 16.9348 67.0113 17.1632 67.0045 17.3917C67.0045 17.4757 66.9943 17.5631 66.9909 17.6471C66.974 17.9529 67.0452 17.422 66.9842 17.7076C66.8959 18.1209 66.7941 18.5274 66.6414 18.9273C66.3665 19.6396 65.9219 20.352 65.4434 20.9702C64.4796 22.2101 63.2952 23.3256 62.0023 24.169C61.3167 24.6159 60.5939 24.9956 59.8439 25.3249C59.2975 25.5634 59.1719 26.3497 59.4468 26.8201C59.776 27.3779 60.4072 27.4518 60.957 27.2132L60.9638 27.2065Z" fill="#1D1D1B"/>
<path d="M65.2636 26.7495C65.1109 25.9062 63.9401 25.6508 63.2444 25.5063C62.1448 25.2745 61.0045 25.1669 59.8812 25.1636C57.3292 25.1569 54.319 25.6978 52.8054 27.9592C51.6109 29.7467 51.957 32.0954 52.7444 33.9636C52.9174 34.3735 53.1821 34.6894 53.6606 34.7465C54.1052 34.8003 54.5192 34.6054 54.7602 34.2257C56.0871 32.1156 58.0147 30.2978 60.4344 29.2729C61.405 28.8597 62.4536 28.5976 63.4955 28.3993C64.2998 28.2448 65.2704 28.0734 65.3043 27.0452C65.3247 26.4538 64.7817 25.9532 64.2014 25.9532C63.5871 25.9532 63.1188 26.4538 63.0984 27.0452C63.095 27.1763 63.4548 25.9028 63.7772 26.1044C63.7636 26.0977 63.672 26.138 63.6516 26.1414C63.5192 26.1649 63.3903 26.2018 63.2579 26.2254C62.8812 26.2993 62.5045 26.3698 62.1278 26.4538C60.9027 26.7327 59.7116 27.1628 58.595 27.7307C56.2059 28.9504 54.2715 30.8791 52.8563 33.1236L54.8722 33.3857C54.3292 32.0954 53.8744 30.58 54.5464 29.3334C54.6041 29.2293 54.6686 29.1318 54.733 29.031C54.767 28.9739 54.8892 28.8328 54.7229 29.031C54.7568 28.9907 54.7873 28.9504 54.8213 28.9134C54.9027 28.8294 54.9774 28.742 55.0622 28.6614C55.1165 28.6076 55.4661 28.3355 55.2285 28.5068C55.422 28.3657 55.6222 28.238 55.836 28.1238C55.9446 28.0667 56.0532 28.0163 56.1652 27.9625C56.2229 27.9323 56.4061 27.8684 56.1652 27.9592C56.2432 27.9289 56.3213 27.8987 56.3993 27.8684C56.8982 27.687 57.4174 27.5627 57.9401 27.4787C58.0249 27.4652 58.3914 27.4182 58.1267 27.4484C58.2726 27.4316 58.4186 27.4148 58.5645 27.4014C58.8428 27.3779 59.1211 27.3611 59.3959 27.3543C59.9186 27.3409 60.4412 27.3543 60.9604 27.3879C61.2082 27.4047 61.4559 27.4283 61.7002 27.4551C61.7613 27.4619 61.8224 27.4719 61.8835 27.4787C61.8597 27.4787 61.6154 27.4383 61.8054 27.4686C61.9208 27.4854 62.0328 27.5022 62.1482 27.5223C62.5385 27.5862 62.9287 27.6635 63.3054 27.7811C63.3801 27.8046 63.4582 27.8416 63.5362 27.8584C63.6618 27.8886 63.2511 27.7071 63.4514 27.8247C63.4717 27.8382 63.5362 27.8886 63.5566 27.8852C63.3903 27.8953 63.1493 27.4283 63.1324 27.3342C63.2376 27.9155 63.9536 28.2414 64.4898 28.0969C65.1075 27.9289 65.3654 27.3375 65.2602 26.7529L65.2636 26.7495Z" fill="#1D1D1B"/>
<path d="M65.0057 26.521L65.1109 25.671L65.1652 25.2442C65.1719 25.177 65.1855 25.1098 65.1889 25.0426C65.1889 25.0157 65.1889 24.9855 65.1889 24.9586C65.1855 24.8679 65.1652 24.7436 65.1482 24.6529C65.1482 24.6361 65.1414 24.6159 65.138 24.5991C65.0362 24.2664 64.8258 23.9943 64.5272 23.8095C64.4729 23.7759 64.4084 23.7557 64.3507 23.7288C64.2998 23.7053 64.2353 23.6751 64.1776 23.6583C64.1606 23.6516 64.1437 23.6515 64.1233 23.6482C64.0147 23.628 63.8959 23.6079 63.7839 23.6045C63.6516 23.6011 63.5124 23.6247 63.3869 23.6515C63.2613 23.6784 63.1154 23.7456 63.0136 23.796C62.9016 23.8532 62.8032 23.9372 62.7081 24.0144C62.6063 24.0984 62.5147 24.2295 62.4468 24.3303C62.3654 24.4479 62.3145 24.5924 62.2636 24.7234C62.2398 24.7839 62.2229 24.8444 62.2127 24.9082C62.1753 25.1233 62.1516 25.3417 62.1448 25.5601C62.138 25.8356 62.2704 26.138 62.4672 26.3329C62.664 26.5278 62.9729 26.6655 63.2477 26.6521C63.5226 26.6387 63.8281 26.5479 64.0283 26.3329C64.2285 26.1178 64.3439 25.8591 64.3507 25.5601C64.3507 25.4559 64.3575 25.3517 64.371 25.2476L64.3303 25.5365C64.3439 25.4525 64.3609 25.3685 64.3948 25.2913L64.2828 25.5533C64.3032 25.5063 64.3269 25.4626 64.3575 25.4223L64.1844 25.6441C64.2115 25.6105 64.2387 25.5802 64.2726 25.5533L64.0486 25.7247C64.0758 25.7079 64.1029 25.6911 64.1301 25.6777L63.8654 25.7886C63.9061 25.7718 63.9502 25.7583 63.9943 25.755L63.7025 25.7953C63.7398 25.7919 63.7771 25.7919 63.8145 25.7953L63.5226 25.755C63.56 25.7617 63.5939 25.7684 63.6278 25.7818L63.3631 25.671C63.3835 25.681 63.4038 25.6911 63.4242 25.7046L63.2002 25.5332C63.2172 25.5466 63.2342 25.5634 63.2477 25.5802L63.0747 25.3585C63.0747 25.3585 63.095 25.3887 63.1018 25.4021L62.9898 25.1401C63.0034 25.1703 63.0102 25.1972 63.0136 25.2308L62.9729 24.9418C62.983 25.0628 62.9559 25.1871 62.9423 25.3081L62.8914 25.718L62.793 26.5177C62.7862 26.6689 62.8201 26.8067 62.888 26.9377C62.9321 27.0721 63.0102 27.1897 63.1154 27.2905C63.3054 27.4787 63.621 27.6232 63.8959 27.6097C64.1708 27.5963 64.4762 27.5055 64.6765 27.2905L64.8495 27.0687C64.948 26.8974 64.9989 26.7159 64.9989 26.5177L65.0057 26.521Z" fill="#1D1D1B"/>
<path d="M63.2851 24.0615C63.0271 25.0426 62.8778 26.0506 62.8201 27.062C62.7896 27.6332 63.3495 28.1809 63.9231 28.154C64.5475 28.1271 64.9921 27.6735 65.026 27.062C65.0464 26.6991 65.0803 26.3396 65.1278 25.9767L65.0871 26.2657C65.1618 25.718 65.2704 25.1736 65.4095 24.6394C65.4808 24.3639 65.4434 24.0447 65.2975 23.7994C65.1652 23.5743 64.9005 23.3558 64.6391 23.2987C64.0622 23.1677 63.4378 23.4701 63.2817 24.0615H63.2851Z" fill="#1D1D1B"/>
<path d="M64.0351 23.0131C63.7602 24.3807 63.5057 25.7482 63.2715 27.1225C63.2206 27.4215 63.224 27.6937 63.3835 27.9625C63.5158 28.1876 63.7806 28.406 64.0419 28.4632C64.5747 28.5841 65.2975 28.3019 65.3993 27.7004C65.6335 26.3262 65.888 24.9553 66.1629 23.5911C66.2749 23.0333 66 22.3848 65.3925 22.247C64.8428 22.1227 64.1572 22.4117 64.0351 23.0098V23.0131Z" fill="#1D1D1B"/>
<path d="M55.517 15.9973C59.0124 15.9973 59.0158 10.6212 55.517 10.6212C52.0181 10.6212 52.0181 15.9973 55.517 15.9973Z" fill="#1D1D1B"/>
</g>
<defs>
<clipPath id="clip0_17_892">
<rect width="102" height="62" fill="white"/>
</clipPath>
</defs>
</svg>
