<svg width="20" height="20" viewBox="0 0 20 20" fill="none" xmlns="http://www.w3.org/2000/svg">
<path d="M17.5845 5.93881L9.82622 13.6971C9.72614 13.7972 9.72614 13.9594 9.82622 14.0595L9.82842 14.0617C9.9285 14.1618 10.0907 14.1618 10.1908 14.0617L17.9491 6.30342C18.0492 6.20334 18.0492 6.04109 17.9491 5.94102L17.9469 5.93881C17.8468 5.83874 17.6846 5.83874 17.5845 5.93881Z" fill="white" stroke="white" stroke-width="3" stroke-miterlimit="10"/>
<path d="M2.05417 6.29929L9.81246 14.0576C9.91253 14.1576 10.0748 14.1576 10.1748 14.0576L10.1771 14.0554C10.2771 13.9553 10.2771 13.793 10.1771 13.693L2.41877 5.93468C2.3187 5.83461 2.15645 5.83461 2.05638 5.93468L2.05417 5.93689C1.9541 6.03697 1.9541 6.19921 2.05417 6.29929Z" fill="white" stroke="white" stroke-width="3" stroke-miterlimit="10"/>
</svg>
