<svg width="113" height="22" viewBox="0 0 113 22" fill="none" xmlns="http://www.w3.org/2000/svg">
<path d="M27.7684 15.0112C27.6244 15.0112 27.5124 14.9832 27.4324 14.9272C27.3604 14.8792 27.3124 14.8072 27.2884 14.7112C27.2644 14.6072 27.2524 14.4952 27.2524 14.3752V7.24724C27.2524 7.12724 27.2644 7.02324 27.2884 6.93523C27.3204 6.83924 27.3724 6.76724 27.4444 6.71923C27.5244 6.66323 27.6364 6.63524 27.7804 6.63524H31.1284C31.5764 6.63524 31.9684 6.73523 32.3044 6.93523C32.6484 7.13524 32.9164 7.40724 33.1084 7.75124C33.3004 8.09523 33.3924 8.47123 33.3844 8.87923C33.3924 9.08723 33.3684 9.29124 33.3124 9.49124C33.2564 9.69124 33.1724 9.87924 33.0604 10.0552C32.9564 10.2232 32.8244 10.3632 32.6644 10.4752C32.8804 10.6112 33.0644 10.7872 33.2164 11.0032C33.3684 11.2192 33.4844 11.4592 33.5644 11.7232C33.6444 11.9872 33.6844 12.2632 33.6844 12.5512C33.6764 12.8952 33.6124 13.2192 33.4924 13.5232C33.3724 13.8192 33.2004 14.0792 32.9764 14.3032C32.7524 14.5272 32.4924 14.7032 32.1964 14.8312C31.9004 14.9512 31.5844 15.0112 31.2484 15.0112H27.7684ZM28.3324 13.9792H31.1284C31.4404 13.9792 31.7084 13.9192 31.9324 13.7992C32.1564 13.6792 32.3284 13.5032 32.4484 13.2712C32.5684 13.0392 32.6284 12.7552 32.6284 12.4192C32.6284 12.1312 32.5884 11.8992 32.5084 11.7232C32.4284 11.5472 32.3204 11.4152 32.1844 11.3272C32.0484 11.2312 31.9004 11.1632 31.7404 11.1232C31.5884 11.0832 31.4364 11.0632 31.2844 11.0632C31.1404 11.0552 31.0084 11.0512 30.8884 11.0512H30.1564C29.9964 11.0512 29.8804 11.0112 29.8084 10.9312C29.7364 10.8512 29.7004 10.7232 29.7004 10.5472C29.7004 10.3792 29.7364 10.2592 29.8084 10.1872C29.8884 10.1152 30.0084 10.0792 30.1684 10.0792H30.9004C31.0284 10.0792 31.1724 10.0752 31.3324 10.0672C31.4924 10.0592 31.6484 10.0272 31.8004 9.97124C31.9604 9.91524 32.0884 9.81124 32.1844 9.65924C32.2884 9.49924 32.3404 9.27524 32.3404 8.98724C32.3404 8.53923 32.2204 8.21124 31.9804 8.00324C31.7404 7.78724 31.3444 7.67924 30.7924 7.67924H28.3324V13.9792ZM39.757 14.9992C39.581 14.9992 39.453 14.9632 39.373 14.8912C39.301 14.8192 39.257 14.7072 39.241 14.5552L39.289 13.9552C39.209 14.0832 39.085 14.2312 38.917 14.3992C38.749 14.5592 38.529 14.7032 38.257 14.8312C37.985 14.9512 37.653 15.0112 37.261 15.0112C36.877 15.0112 36.517 14.9352 36.181 14.7832C35.853 14.6312 35.561 14.4192 35.305 14.1472C35.057 13.8752 34.861 13.5632 34.717 13.2112C34.581 12.8592 34.513 12.4832 34.513 12.0832C34.513 11.6912 34.581 11.3232 34.717 10.9792C34.861 10.6272 35.061 10.3192 35.317 10.0552C35.573 9.79124 35.865 9.58324 36.193 9.43124C36.529 9.27924 36.885 9.20323 37.261 9.20323C37.613 9.20323 37.913 9.25124 38.161 9.34724C38.409 9.43524 38.621 9.55524 38.797 9.70724C38.981 9.85124 39.141 10.0152 39.277 10.1992L39.253 9.69524C39.245 9.51924 39.281 9.39524 39.361 9.32324C39.449 9.24323 39.585 9.20323 39.769 9.20323C39.921 9.20323 40.029 9.22723 40.093 9.27524C40.165 9.32324 40.213 9.39124 40.237 9.47923C40.261 9.56723 40.273 9.67524 40.273 9.80324V14.4352C40.273 14.5472 40.261 14.6472 40.237 14.7352C40.213 14.8232 40.165 14.8872 40.093 14.9272C40.021 14.9752 39.909 14.9992 39.757 14.9992ZM37.441 14.0032C37.761 14.0032 38.053 13.9192 38.317 13.7512C38.589 13.5832 38.801 13.3592 38.953 13.0792C39.113 12.7912 39.193 12.4632 39.193 12.0952C39.193 11.7192 39.109 11.3912 38.941 11.1112C38.781 10.8232 38.565 10.5992 38.293 10.4392C38.029 10.2712 37.737 10.1872 37.417 10.1872C37.041 10.1872 36.713 10.2752 36.433 10.4512C36.161 10.6192 35.945 10.8472 35.785 11.1352C35.625 11.4232 35.545 11.7512 35.545 12.1192C35.545 12.4792 35.625 12.8032 35.785 13.0912C35.945 13.3712 36.165 13.5952 36.445 13.7632C36.733 13.9232 37.065 14.0032 37.441 14.0032ZM42.2916 15.0112C42.1396 15.0112 42.0236 14.9872 41.9436 14.9392C41.8716 14.8992 41.8236 14.8392 41.7996 14.7592C41.7756 14.6792 41.7636 14.5832 41.7636 14.4712V9.73124C41.7636 9.61924 41.7756 9.52323 41.7996 9.44324C41.8236 9.36324 41.8716 9.30324 41.9436 9.26324C42.0236 9.22324 42.1436 9.20323 42.3036 9.20323C42.4556 9.20323 42.5676 9.22723 42.6396 9.27524C42.7116 9.31524 42.7596 9.37524 42.7836 9.45524C42.8076 9.53524 42.8196 9.63524 42.8196 9.75523V14.4832C42.8196 14.5952 42.8076 14.6912 42.7836 14.7712C42.7596 14.8512 42.7076 14.9112 42.6276 14.9512C42.5556 14.9912 42.4436 15.0112 42.2916 15.0112ZM42.2916 7.76323C42.1156 7.76323 41.9836 7.73923 41.8956 7.69124C41.8076 7.63523 41.7476 7.55923 41.7156 7.46324C41.6916 7.36723 41.6796 7.25523 41.6796 7.12724C41.6796 6.99923 41.6956 6.89123 41.7276 6.80324C41.7596 6.70723 41.8196 6.63923 41.9076 6.59923C41.9956 6.55123 42.1276 6.52724 42.3036 6.52724C42.4716 6.52724 42.5996 6.55123 42.6876 6.59923C42.7756 6.64723 42.8316 6.71923 42.8556 6.81523C42.8876 6.91124 42.9036 7.02324 42.9036 7.15123C42.9036 7.27924 42.8876 7.39124 42.8556 7.48723C42.8316 7.57524 42.7756 7.64324 42.6876 7.69124C42.5996 7.73923 42.4676 7.76323 42.2916 7.76323ZM48.8632 9.28724C48.9752 9.37524 49.0512 9.45924 49.0912 9.53924C49.1312 9.61124 49.1352 9.69524 49.1032 9.79124C49.0712 9.87924 48.9992 9.98723 48.8872 10.1152L45.0952 14.7832C44.9912 14.9032 44.8992 14.9832 44.8192 15.0232C44.7392 15.0712 44.6592 15.0832 44.5792 15.0592C44.5072 15.0352 44.4192 14.9832 44.3152 14.9032C44.2112 14.8152 44.1392 14.7352 44.0992 14.6632C44.0672 14.5832 44.0672 14.4992 44.0992 14.4112C44.1392 14.3232 44.2112 14.2152 44.3152 14.0872L48.1072 9.41923C48.2672 9.24324 48.3952 9.14724 48.4912 9.13124C48.5872 9.10724 48.7112 9.15924 48.8632 9.28724ZM44.3392 9.28724C44.4432 9.20724 44.5312 9.15524 44.6032 9.13124C44.6832 9.10724 44.7592 9.11924 44.8312 9.16724C44.9032 9.21524 44.9872 9.29924 45.0832 9.41923L48.8752 14.0872C48.9872 14.2152 49.0592 14.3232 49.0912 14.4112C49.1312 14.4992 49.1312 14.5832 49.0912 14.6632C49.0592 14.7352 48.9872 14.8152 48.8752 14.9032C48.7792 14.9832 48.6912 15.0352 48.6112 15.0592C48.5392 15.0832 48.4632 15.0712 48.3832 15.0232C48.3032 14.9832 48.2112 14.9032 48.1072 14.7832L44.3152 10.1152C44.2032 9.98723 44.1312 9.87924 44.0992 9.79124C44.0672 9.69524 44.0672 9.61124 44.0992 9.53924C44.1392 9.45924 44.2192 9.37524 44.3392 9.28724ZM52.8185 15.0712C52.3385 15.0712 51.9105 14.9912 51.5345 14.8312C51.1585 14.6712 50.8385 14.4552 50.5745 14.1832C50.3185 13.9032 50.1225 13.5832 49.9865 13.2232C49.8505 12.8632 49.7825 12.4752 49.7825 12.0592C49.7825 11.5072 49.9105 11.0152 50.1665 10.5832C50.4225 10.1512 50.7745 9.81124 51.2225 9.56323C51.6785 9.30724 52.1985 9.17924 52.7825 9.17924C53.1825 9.17924 53.5385 9.24324 53.8505 9.37124C54.1705 9.49124 54.4425 9.65524 54.6665 9.86323C54.8905 10.0712 55.0625 10.3032 55.1825 10.5592C55.3025 10.8152 55.3625 11.0712 55.3625 11.3272C55.3625 11.7352 55.2665 12.0232 55.0745 12.1912C54.8825 12.3512 54.6465 12.4312 54.3665 12.4312H50.8985C50.8905 12.7832 50.9825 13.0872 51.1745 13.3432C51.3745 13.5912 51.6225 13.7832 51.9185 13.9192C52.2225 14.0552 52.5265 14.1232 52.8305 14.1232C53.0545 14.1232 53.2465 14.1112 53.4065 14.0872C53.5665 14.0632 53.7065 14.0312 53.8265 13.9912C53.9465 13.9512 54.0505 13.9112 54.1385 13.8712C54.2265 13.8312 54.3025 13.7912 54.3665 13.7512C54.4385 13.7112 54.5065 13.6832 54.5705 13.6672C54.6425 13.6512 54.7105 13.6592 54.7745 13.6912C54.8465 13.7152 54.9025 13.7672 54.9425 13.8472C54.9905 13.9112 55.0225 13.9712 55.0385 14.0272C55.0545 14.0832 55.0625 14.1432 55.0625 14.2072C55.0625 14.3192 54.9665 14.4432 54.7745 14.5792C54.5825 14.7152 54.3145 14.8312 53.9705 14.9272C53.6345 15.0232 53.2505 15.0712 52.8185 15.0712ZM50.8985 11.7232H53.9105C54.0625 11.7232 54.1745 11.7032 54.2465 11.6632C54.3265 11.6232 54.3665 11.5152 54.3665 11.3392C54.3665 11.1152 54.2985 10.9152 54.1625 10.7392C54.0265 10.5552 53.8385 10.4072 53.5985 10.2952C53.3665 10.1832 53.0985 10.1272 52.7945 10.1272C52.4425 10.1272 52.1185 10.1992 51.8225 10.3432C51.5345 10.4792 51.3065 10.6672 51.1385 10.9072C50.9705 11.1472 50.8905 11.4192 50.8985 11.7232ZM60.1379 14.9992C59.9859 14.9992 59.8699 14.9752 59.7899 14.9272C59.7179 14.8872 59.6699 14.8272 59.6459 14.7472C59.6299 14.6672 59.6219 14.5712 59.6219 14.4592V9.69524C59.6219 9.59124 59.6339 9.50324 59.6579 9.43124C59.6819 9.35924 59.7299 9.30324 59.8019 9.26324C59.8819 9.22324 59.9979 9.20323 60.1499 9.20323C60.2699 9.20323 60.3619 9.21923 60.4259 9.25124C60.4979 9.27524 60.5459 9.31124 60.5699 9.35924C60.6019 9.40724 60.6219 9.45924 60.6299 9.51524C60.6379 9.57124 60.6419 9.62324 60.6419 9.67123L60.6179 10.2232C60.6979 10.0872 60.7979 9.95924 60.9179 9.83923C61.0379 9.71124 61.1779 9.59924 61.3379 9.50323C61.4979 9.39924 61.6699 9.31924 61.8539 9.26324C62.0459 9.20724 62.2499 9.17924 62.4659 9.17924C62.8179 9.17924 63.1419 9.24324 63.4379 9.37124C63.7339 9.49124 63.9859 9.67124 64.1939 9.91124C64.4099 10.1432 64.5739 10.4232 64.6859 10.7512C64.8059 11.0792 64.8659 11.4512 64.8659 11.8672V14.4712C64.8659 14.5832 64.8539 14.6792 64.8299 14.7592C64.8139 14.8392 64.7659 14.8992 64.6859 14.9392C64.6139 14.9792 64.5019 14.9992 64.3499 14.9992C64.1899 14.9992 64.0699 14.9752 63.9899 14.9272C63.9179 14.8872 63.8699 14.8272 63.8459 14.7472C63.8219 14.6672 63.8099 14.5712 63.8099 14.4592V11.8552C63.8099 11.5192 63.7539 11.2272 63.6419 10.9792C63.5299 10.7312 63.3619 10.5392 63.1379 10.4032C62.9139 10.2592 62.6299 10.1872 62.2859 10.1872C61.9579 10.1872 61.6699 10.2592 61.4219 10.4032C61.1819 10.5392 60.9939 10.7312 60.8579 10.9792C60.7299 11.2272 60.6659 11.5192 60.6659 11.8552V14.4712C60.6659 14.5832 60.6539 14.6792 60.6299 14.7592C60.6059 14.8392 60.5539 14.8992 60.4739 14.9392C60.4019 14.9792 60.2899 14.9992 60.1379 14.9992ZM68.9176 15.0832C68.5256 15.0832 68.1496 15.0072 67.7896 14.8552C67.4376 14.7032 67.1216 14.4952 66.8416 14.2312C66.5616 13.9592 66.3416 13.6432 66.1816 13.2832C66.0216 12.9232 65.9416 12.5312 65.9416 12.1072C65.9416 11.6912 66.0176 11.3072 66.1696 10.9552C66.3216 10.5952 66.5336 10.2792 66.8056 10.0072C67.0776 9.73524 67.3896 9.52324 67.7416 9.37124C68.1016 9.21124 68.4856 9.13124 68.8936 9.13124C69.4456 9.13124 69.9416 9.26324 70.3816 9.52724C70.8296 9.78324 71.1856 10.1352 71.4496 10.5832C71.7136 11.0312 71.8456 11.5352 71.8456 12.0952C71.8456 12.5352 71.7656 12.9392 71.6056 13.3072C71.4456 13.6672 71.2296 13.9792 70.9576 14.2432C70.6856 14.5072 70.3736 14.7152 70.0216 14.8672C69.6696 15.0112 69.3016 15.0832 68.9176 15.0832ZM68.8936 14.0392C69.2296 14.0392 69.5416 13.9552 69.8296 13.7872C70.1176 13.6192 70.3496 13.3872 70.5256 13.0912C70.7016 12.7952 70.7896 12.4592 70.7896 12.0832C70.7896 11.7072 70.7056 11.3752 70.5376 11.0872C70.3776 10.7992 70.1536 10.5752 69.8656 10.4152C69.5776 10.2552 69.2496 10.1752 68.8816 10.1752C68.5296 10.1752 68.2096 10.2592 67.9216 10.4272C67.6416 10.5952 67.4136 10.8232 67.2376 11.1112C67.0696 11.3992 66.9856 11.7272 66.9856 12.0952C66.9856 12.4792 67.0736 12.8192 67.2496 13.1152C67.4256 13.4032 67.6576 13.6312 67.9456 13.7992C68.2416 13.9592 68.5576 14.0392 68.8936 14.0392ZM80.0353 15.0352C79.4113 15.0352 78.8513 14.9352 78.3553 14.7352C77.8593 14.5272 77.4313 14.2352 77.0713 13.8592C76.7193 13.4752 76.4473 13.0152 76.2553 12.4792C76.0633 11.9432 75.9673 11.3472 75.9673 10.6912C75.9673 10.0672 76.0633 9.50323 76.2553 8.99924C76.4553 8.49524 76.7393 8.06324 77.1073 7.70323C77.4753 7.34323 77.9153 7.06323 78.4273 6.86323C78.9393 6.65523 79.5153 6.54723 80.1553 6.53923C80.4033 6.53923 80.6553 6.56323 80.9113 6.61123C81.1753 6.65924 81.4273 6.72724 81.6673 6.81523C81.9073 6.90323 82.1233 7.00723 82.3153 7.12724C82.4513 7.21523 82.5673 7.30724 82.6633 7.40324C82.7593 7.49124 82.8113 7.58324 82.8193 7.67924C82.8273 7.72724 82.8193 7.78724 82.7953 7.85924C82.7713 7.93124 82.7393 7.99924 82.6993 8.06324C82.6353 8.15924 82.5633 8.23124 82.4833 8.27924C82.4113 8.31924 82.3393 8.33924 82.2673 8.33924C82.2353 8.33924 82.1793 8.31924 82.0993 8.27924C82.0193 8.23923 81.9193 8.17923 81.7993 8.09923C81.6633 8.01923 81.5033 7.94323 81.3193 7.87123C81.1433 7.79923 80.9513 7.74323 80.7433 7.70323C80.5353 7.66323 80.3193 7.64323 80.0953 7.64323C79.4793 7.64323 78.9433 7.76724 78.4873 8.01524C78.0313 8.26323 77.6793 8.61923 77.4313 9.08324C77.1913 9.54724 77.0673 10.0952 77.0593 10.7272C77.0673 11.3832 77.1953 11.9512 77.4433 12.4312C77.6913 12.9112 78.0393 13.2832 78.4873 13.5472C78.9433 13.8112 79.4753 13.9432 80.0833 13.9432C80.2833 13.9432 80.4873 13.9272 80.6953 13.8952C80.9033 13.8632 81.1073 13.8192 81.3073 13.7632C81.5153 13.6992 81.7073 13.6232 81.8833 13.5352V11.2192H79.7833C79.6793 11.2192 79.5873 11.2072 79.5073 11.1832C79.4353 11.1592 79.3793 11.1112 79.3393 11.0392C79.3073 10.9672 79.2913 10.8592 79.2913 10.7152C79.2913 10.5712 79.3113 10.4632 79.3513 10.3912C79.3913 10.3192 79.4473 10.2712 79.5193 10.2472C79.5913 10.2232 79.6793 10.2112 79.7833 10.2112H82.3873C82.5473 10.2112 82.6673 10.2392 82.7473 10.2952C82.8273 10.3512 82.8833 10.4232 82.9153 10.5112C82.9553 10.5912 82.9753 10.6912 82.9753 10.8112V13.7632C82.9753 13.8912 82.9033 14.0272 82.7593 14.1712C82.6233 14.3072 82.4273 14.4352 82.1713 14.5552C81.9873 14.6512 81.7793 14.7352 81.5473 14.8072C81.3233 14.8792 81.0833 14.9352 80.8273 14.9752C80.5713 15.0152 80.3073 15.0352 80.0353 15.0352ZM85.1354 15.0112C84.9834 15.0112 84.8674 14.9872 84.7874 14.9392C84.7154 14.8992 84.6674 14.8392 84.6434 14.7592C84.6194 14.6792 84.6074 14.5832 84.6074 14.4712V9.73124C84.6074 9.61924 84.6194 9.52323 84.6434 9.44324C84.6674 9.36324 84.7154 9.30324 84.7874 9.26324C84.8674 9.22324 84.9874 9.20323 85.1474 9.20323C85.2994 9.20323 85.4114 9.22723 85.4834 9.27524C85.5554 9.31524 85.6034 9.37524 85.6274 9.45524C85.6514 9.53524 85.6634 9.63524 85.6634 9.75523V14.4832C85.6634 14.5952 85.6514 14.6912 85.6274 14.7712C85.6034 14.8512 85.5514 14.9112 85.4714 14.9512C85.3994 14.9912 85.2874 15.0112 85.1354 15.0112ZM85.1354 7.76323C84.9594 7.76323 84.8274 7.73923 84.7394 7.69124C84.6514 7.63523 84.5914 7.55923 84.5594 7.46324C84.5354 7.36723 84.5234 7.25523 84.5234 7.12724C84.5234 6.99923 84.5394 6.89123 84.5714 6.80324C84.6034 6.70723 84.6634 6.63923 84.7514 6.59923C84.8394 6.55123 84.9714 6.52724 85.1474 6.52724C85.3154 6.52724 85.4434 6.55123 85.5314 6.59923C85.6194 6.64723 85.6754 6.71923 85.6994 6.81523C85.7314 6.91124 85.7474 7.02324 85.7474 7.15123C85.7474 7.27924 85.7314 7.39124 85.6994 7.48723C85.6754 7.57524 85.6194 7.64324 85.5314 7.69124C85.4434 7.73923 85.3114 7.76323 85.1354 7.76323ZM89.7443 15.0112C89.3683 15.0112 89.0483 14.9752 88.7843 14.9032C88.5283 14.8312 88.3163 14.7192 88.1483 14.5672C87.9803 14.4152 87.8603 14.2192 87.7883 13.9792C87.7163 13.7312 87.6803 13.4272 87.6803 13.0672V7.76323C87.6803 7.65123 87.6923 7.55523 87.7163 7.47523C87.7403 7.39524 87.7883 7.33524 87.8603 7.29524C87.9323 7.24723 88.0443 7.22323 88.1963 7.22323C88.3483 7.22323 88.4643 7.24723 88.5443 7.29524C88.6243 7.33524 88.6763 7.39524 88.7003 7.47523C88.7243 7.54724 88.7363 7.63924 88.7363 7.75124V13.0672C88.7363 13.2752 88.7523 13.4432 88.7843 13.5712C88.8243 13.6912 88.8803 13.7832 88.9523 13.8472C89.0323 13.9112 89.1363 13.9512 89.2643 13.9672C89.3923 13.9832 89.5483 13.9912 89.7323 13.9912C89.8603 13.9912 89.9643 14.0032 90.0443 14.0272C90.1243 14.0512 90.1843 14.0992 90.2243 14.1712C90.2643 14.2432 90.2843 14.3512 90.2843 14.4952C90.2843 14.6472 90.2603 14.7632 90.2123 14.8432C90.1723 14.9152 90.1083 14.9592 90.0203 14.9752C89.9403 14.9992 89.8483 15.0112 89.7443 15.0112ZM87.0563 9.33523L88.2083 9.34724L89.8763 9.32324C89.9883 9.32324 90.0843 9.33524 90.1643 9.35924C90.2443 9.37524 90.3043 9.42324 90.3443 9.50323C90.3923 9.57524 90.4163 9.68723 90.4163 9.83923C90.4163 9.99124 90.3963 10.1072 90.3563 10.1872C90.3163 10.2592 90.2563 10.3072 90.1763 10.3312C90.0963 10.3552 90.0003 10.3672 89.8883 10.3672L88.2443 10.3432L87.0323 10.3552C86.8643 10.3552 86.7483 10.3152 86.6843 10.2352C86.6283 10.1552 86.6003 10.0232 86.6003 9.83923C86.6003 9.66324 86.6363 9.53524 86.7083 9.45524C86.7803 9.37524 86.8963 9.33523 87.0563 9.33523ZM97.58 15.0112C97.428 15.0112 97.312 14.9872 97.232 14.9392C97.16 14.8992 97.112 14.8392 97.088 14.7592C97.064 14.6712 97.052 14.5712 97.052 14.4592V7.17524C97.052 7.06324 97.064 6.96724 97.088 6.88723C97.112 6.80723 97.164 6.74723 97.244 6.70723C97.324 6.65924 97.44 6.63524 97.592 6.63524C97.752 6.63524 97.868 6.65924 97.94 6.70723C98.02 6.74723 98.072 6.80723 98.096 6.88723C98.12 6.96724 98.132 7.06724 98.132 7.18724V14.4712C98.132 14.5832 98.116 14.6792 98.084 14.7592C98.06 14.8392 98.008 14.8992 97.928 14.9392C97.856 14.9872 97.74 15.0112 97.58 15.0112ZM92.18 15.0112C92.02 15.0112 91.9 14.9872 91.82 14.9392C91.748 14.8992 91.7 14.8392 91.676 14.7592C91.652 14.6712 91.64 14.5712 91.64 14.4592V7.17524C91.64 7.06324 91.652 6.96724 91.676 6.88723C91.708 6.80723 91.76 6.74723 91.832 6.70723C91.912 6.65924 92.032 6.63524 92.192 6.63524C92.344 6.63524 92.456 6.65924 92.528 6.70723C92.608 6.74723 92.66 6.80723 92.684 6.88723C92.708 6.96724 92.72 7.06724 92.72 7.18724V14.4712C92.72 14.5832 92.708 14.6792 92.684 14.7592C92.66 14.8392 92.608 14.8992 92.528 14.9392C92.448 14.9872 92.332 15.0112 92.18 15.0112ZM92.228 11.2192V10.2112H97.244L97.232 11.2192H92.228ZM102.062 15.0232C101.71 15.0232 101.382 14.9592 101.078 14.8312C100.782 14.7032 100.522 14.5232 100.298 14.2912C100.074 14.0592 99.8983 13.7792 99.7703 13.4512C99.6503 13.1232 99.5903 12.7512 99.5903 12.3352V9.73124C99.5903 9.61924 99.6023 9.52323 99.6263 9.44324C99.6503 9.36324 99.6983 9.30324 99.7703 9.26324C99.8503 9.21524 99.9663 9.19124 100.118 9.19124C100.27 9.19124 100.382 9.21524 100.454 9.26324C100.534 9.31124 100.586 9.37524 100.61 9.45524C100.634 9.53524 100.646 9.63124 100.646 9.74324V12.3472C100.646 12.6752 100.702 12.9672 100.814 13.2232C100.926 13.4712 101.094 13.6632 101.318 13.7992C101.55 13.9352 101.83 14.0032 102.158 14.0032C102.494 14.0032 102.782 13.9352 103.022 13.7992C103.27 13.6632 103.458 13.4712 103.586 13.2232C103.722 12.9672 103.79 12.6752 103.79 12.3472V9.73124C103.79 9.61924 103.802 9.52323 103.826 9.44324C103.85 9.36324 103.898 9.30324 103.97 9.26324C104.05 9.21524 104.166 9.19124 104.318 9.19124C104.47 9.19124 104.582 9.21524 104.654 9.26324C104.734 9.31124 104.782 9.37524 104.798 9.45524C104.822 9.53524 104.834 9.63124 104.834 9.74324V14.5072C104.834 14.6032 104.822 14.6912 104.798 14.7712C104.782 14.8432 104.734 14.8992 104.654 14.9392C104.582 14.9792 104.47 14.9992 104.318 14.9992C104.206 14.9992 104.114 14.9872 104.042 14.9632C103.978 14.9392 103.93 14.9072 103.898 14.8672C103.866 14.8272 103.842 14.7832 103.826 14.7352C103.818 14.6792 103.814 14.6232 103.814 14.5672L103.862 14.0512C103.782 14.1472 103.686 14.2512 103.574 14.3632C103.462 14.4752 103.33 14.5832 103.178 14.6872C103.034 14.7832 102.87 14.8632 102.686 14.9272C102.502 14.9912 102.294 15.0232 102.062 15.0232ZM109.238 15.0112C108.846 15.0112 108.49 14.9392 108.17 14.7952C107.85 14.6512 107.578 14.4472 107.354 14.1832C107.13 13.9192 106.954 13.6112 106.826 13.2592C106.706 12.9072 106.65 12.5192 106.658 12.0952C106.658 11.6792 106.718 11.2952 106.838 10.9432C106.958 10.5832 107.13 10.2752 107.354 10.0192C107.586 9.75524 107.858 9.55124 108.17 9.40724C108.49 9.26324 108.846 9.19124 109.238 9.19124C109.606 9.19124 109.95 9.26324 110.27 9.40724C110.598 9.55124 110.882 9.75524 111.122 10.0192C111.37 10.2752 111.562 10.5792 111.698 10.9312C111.842 11.2832 111.914 11.6672 111.914 12.0832C111.914 12.5072 111.842 12.8992 111.698 13.2592C111.562 13.6112 111.37 13.9192 111.122 14.1832C110.882 14.4472 110.598 14.6512 110.27 14.7952C109.95 14.9392 109.606 15.0112 109.238 15.0112ZM109.082 13.9912C109.418 13.9912 109.722 13.9112 109.994 13.7512C110.266 13.5912 110.478 13.3712 110.63 13.0912C110.79 12.8032 110.87 12.4752 110.87 12.1072C110.87 11.7312 110.79 11.4032 110.63 11.1232C110.478 10.8352 110.266 10.6112 109.994 10.4512C109.73 10.2912 109.426 10.2112 109.082 10.2112C108.746 10.2112 108.442 10.2912 108.17 10.4512C107.906 10.6112 107.694 10.8352 107.534 11.1232C107.382 11.4032 107.306 11.7312 107.306 12.1072C107.306 12.4752 107.382 12.8032 107.534 13.0912C107.694 13.3712 107.906 13.5912 108.17 13.7512C108.442 13.9112 108.746 13.9912 109.082 13.9912ZM106.742 15.0232C106.59 15.0232 106.474 14.9992 106.394 14.9512C106.322 14.9112 106.274 14.8512 106.25 14.7712C106.226 14.6832 106.214 14.5872 106.214 14.4832V7.07924C106.214 6.95924 106.226 6.85924 106.25 6.77923C106.274 6.69923 106.322 6.63923 106.394 6.59923C106.474 6.55123 106.59 6.52724 106.742 6.52724C106.894 6.52724 107.006 6.55123 107.078 6.59923C107.15 6.64723 107.198 6.71123 107.222 6.79124C107.246 6.87124 107.258 6.96724 107.258 7.07924V14.5912C107.242 14.7432 107.194 14.8512 107.114 14.9152C107.042 14.9872 106.918 15.0232 106.742 15.0232Z" fill="black"/>
<g clip-path="url(#clip0_155_262)">
<path fill-rule="evenodd" clip-rule="evenodd" d="M10.8291 0.863464C5.18666 0.863464 0.611206 5.4379 0.611206 11.0814C0.611206 15.5961 3.53895 19.426 7.59883 20.7773C8.10932 20.872 8.2968 20.5556 8.2968 20.2857C8.2968 20.0421 8.28732 19.2372 8.28292 18.3834C5.44029 19.0015 4.84046 17.1778 4.84046 17.1778C4.37566 15.9967 3.70595 15.6827 3.70595 15.6827C2.77871 15.0485 3.77583 15.0617 3.77583 15.0617C4.80172 15.1336 5.34216 16.1147 5.34216 16.1147C6.25349 17.6764 7.7325 17.225 8.31558 16.9641C8.40729 16.3037 8.67209 15.8528 8.96431 15.5976C6.69477 15.3396 4.30883 14.4633 4.30883 10.548C4.30883 9.43247 4.70815 8.52097 5.36178 7.80524C5.25552 7.54805 4.90578 6.50879 5.4606 5.10135C5.4606 5.10135 6.31846 4.82673 8.27108 6.14873C9.08631 5.92216 9.96058 5.80829 10.8291 5.8044C11.6971 5.80829 12.5719 5.92182 13.3887 6.14839C15.3389 4.8264 16.1958 5.10101 16.1958 5.10101C16.7519 6.50829 16.4022 7.54771 16.2961 7.8049C16.9513 8.52063 17.3477 9.43213 17.3477 10.5477C17.3477 14.4722 14.9574 15.3362 12.6821 15.5893C13.0487 15.9064 13.3753 16.5284 13.3753 17.4815C13.3753 18.8487 13.3634 19.949 13.3634 20.2856C13.3634 20.5575 13.5475 20.8761 14.0653 20.7758C18.1228 19.4231 21.0472 15.5944 21.0472 11.0814C21.047 5.43824 16.4721 0.863464 10.8291 0.863464Z" fill="#181616"/>
<path d="M4.48123 15.534C4.45873 15.5848 4.37886 15.6 4.3061 15.5653C4.23165 15.5321 4.1902 15.4629 4.21423 15.412C4.23622 15.3595 4.31626 15.3452 4.3902 15.3802C4.46465 15.4135 4.50695 15.4834 4.48106 15.5342L4.48123 15.534ZM4.8951 15.9957C4.84654 16.0409 4.75128 16.0199 4.68664 15.9484C4.61964 15.8773 4.60712 15.782 4.65669 15.7362C4.70712 15.6912 4.7995 15.7125 4.86651 15.7836C4.93317 15.8556 4.94637 15.9501 4.89527 15.9959L4.8951 15.9957ZM5.29815 16.5841C5.23554 16.6277 5.133 16.5869 5.06972 16.4961C5.00712 16.4051 5.00712 16.2959 5.07141 16.2524C5.13453 16.2088 5.23554 16.2482 5.29984 16.3382C5.36211 16.4304 5.36211 16.5397 5.29815 16.5841ZM5.84992 17.1528C5.79409 17.2145 5.67463 17.1979 5.58732 17.1138C5.49815 17.0314 5.47327 16.9142 5.52928 16.8526C5.58613 16.7907 5.7061 16.8079 5.79392 16.8915C5.88309 16.9737 5.90999 17.0912 5.85026 17.1526L5.84992 17.1528ZM6.61134 17.4829C6.58647 17.5629 6.47175 17.5993 6.35584 17.5651C6.24028 17.5301 6.16464 17.4365 6.18833 17.3556C6.21202 17.2749 6.32759 17.2372 6.44417 17.2736C6.55973 17.3084 6.63537 17.4015 6.61134 17.4829ZM7.44772 17.544C7.45059 17.6282 7.35245 17.6979 7.23114 17.6996C7.1088 17.7025 7.00982 17.6342 7.00863 17.5512C7.00863 17.4661 7.10474 17.3973 7.22691 17.3949C7.34822 17.3927 7.44789 17.4604 7.44789 17.5438L7.44772 17.544ZM8.22572 17.4116C8.24027 17.4937 8.15584 17.5781 8.03519 17.6006C7.91675 17.6226 7.80677 17.5715 7.79154 17.4902C7.77699 17.4059 7.86294 17.3215 7.98139 17.2996C8.1022 17.2788 8.21049 17.3282 8.22572 17.4116Z" fill="#181616"/>
</g>
<defs>
<clipPath id="clip0_155_262">
<rect width="21.6581" height="21.6581" fill="white"/>
</clipPath>
</defs>
</svg>
