<svg width="63" height="64" viewBox="0 0 63 64" fill="none" xmlns="http://www.w3.org/2000/svg">
<path d="M4.43652 33.3507H59.0787V52.1438C59.0796 53.2664 58.8594 54.3783 58.4307 55.4157C58.0021 56.4532 57.3733 57.3959 56.5804 58.1901C55.7875 58.9842 54.846 59.6142 53.8097 60.044C52.7734 60.4739 51.6626 60.6951 50.5408 60.6951H12.9783C11.857 60.6951 10.7468 60.4741 9.71096 60.0447C8.67511 59.6153 7.7339 58.9859 6.94109 58.1925C5.33994 56.5901 4.44042 54.4167 4.44042 52.1506V33.3575L4.43652 33.3507Z" fill="#706F6F"/>
<path d="M53.2932 6.33256L55.2752 11.3707L4.44124 31.4004L2.45929 26.3632C2.23183 25.7928 2.11685 25.1838 2.1207 24.5696C2.1237 23.8284 2.29511 23.0975 2.62196 22.4324C2.9488 21.7672 3.42253 21.1851 4.00729 20.7302C4.37165 20.447 4.77466 20.2174 5.20405 20.0486L46.9845 3.58663C48.1849 3.11359 49.524 3.13713 50.7071 3.65209C51.8902 4.16704 52.8204 5.13122 53.2932 6.33256Z" fill="#706F6F"/>
<path d="M41.2515 16.8956L36.6435 18.7116L26.9673 11.4739L31.5763 9.65784L41.2515 16.8956Z" fill="#B2B2B2"/>
<path d="M32.0082 20.5384L27.373 22.3651L17.6968 15.1263L22.332 13.2996L32.0082 20.5384Z" fill="#B2B2B2"/>
<path d="M22.7651 24.1801L18.1474 26.0001L8.4624 18.7652L13.0889 16.9424L22.7651 24.1801Z" fill="#B2B2B2"/>
<path d="M13.5122 27.8258L8.9139 29.6379L2.12061 24.5696C2.12361 23.8284 2.29502 23.0975 2.62186 22.4323C2.94871 21.7672 3.42243 21.1851 4.0072 20.7302L13.5122 27.8258Z" fill="#B2B2B2"/>
<path d="M50.5131 13.247L45.8779 15.0728L36.2017 7.83504L40.8281 6.01221L50.5131 13.247Z" fill="#B2B2B2"/>
<path d="M53.2933 6.33256L55.2753 11.3707L55.1488 11.4203L45.4551 4.18937L46.9846 3.58663C48.185 3.11359 49.5241 3.13713 50.7072 3.65209C51.8903 4.16704 52.8205 5.13122 53.2933 6.33256Z" fill="#B2B2B2"/>
<path d="M26.3828 47.0706V41.7151C26.3893 41.5132 26.4481 41.3165 26.5532 41.1441C26.6583 40.9718 26.8063 40.8296 26.9827 40.7315C27.1592 40.6334 27.358 40.5828 27.5598 40.5845C27.7616 40.5862 27.9595 40.6403 28.1342 40.7414L32.2207 43.3705L36.599 46.0969C36.7605 46.1913 36.8945 46.3263 36.9876 46.4886C37.0808 46.6509 37.1298 46.8348 37.1298 47.022C37.1298 47.2091 37.0808 47.393 36.9876 47.5553C36.8945 47.7176 36.7605 47.8527 36.599 47.947L32.2207 50.6735L28.1342 53.3025C27.9595 53.4036 27.7616 53.4577 27.5598 53.4594C27.358 53.4611 27.1592 53.4105 26.9827 53.3124C26.8063 53.2143 26.6583 53.0721 26.5532 52.8998C26.4481 52.7274 26.3893 52.5307 26.3828 52.3288V47.0706Z" fill="#B3B2B2" stroke="#B3B2B2" stroke-width="2" stroke-miterlimit="10"/>
</svg>
