<svg width="339" height="358" viewBox="0 0 339 358" fill="none" xmlns="http://www.w3.org/2000/svg">
<g clip-path="url(#clip0_126_346)">
<path d="M0.969922 357.752C-0.161852 356.355 0.184338 354.688 0.17768 353.112C0.15105 339.637 -0.14188 326.156 0.217625 312.688C1.52249 263.5 0.230939 214.3 0.870059 165.113C1.42929 122.213 16.8014 85.0509 46.0811 53.6272C72.4581 25.3339 104.967 7.86815 143.267 2.15655C193.365 -5.3089 238.722 6.53787 277.882 38.7955C312.527 67.3403 332.413 104.304 338.059 148.732C338.605 153.014 338.937 157.349 338.944 161.664C338.991 223.85 338.971 286.036 338.964 348.221C337.366 351.471 333.046 351.517 331.042 354.78C333.725 355.965 337.1 354.323 338.997 357.149C334.291 358.632 329.477 357.719 324.71 357.752C322.979 356.488 323.113 354.595 322.926 352.768C322.101 344.482 321.382 336.163 317.274 328.631C316.535 324.376 313.399 321.841 310.45 319.147C309.132 317.943 307.115 317.268 307.068 315.024C306.582 312.31 306.822 309.61 307.288 306.936C308.42 300.384 308.366 293.667 310.111 287.207C310.317 286.909 310.656 286.4 310.863 286.473C314.285 287.71 315.869 285.533 317.4 283.13C317.72 282.627 318.346 282.369 318.912 282.118C319.464 281.866 320.057 281.668 320.683 280.523C316.575 279.404 315.15 276.082 314.178 272.382C313.825 271.039 311.655 271.303 311.382 269.702C310.783 266.128 311.382 262.574 311.449 259.013C311.815 238.066 312.754 217.086 309.059 196.278C308.147 191.136 306.309 186.311 304.631 181.427C304.891 179.792 305.723 178.501 306.882 177.304C321.861 161.837 323.878 140.353 312.035 122.325C310.557 120.075 309.358 117.593 307.261 115.78C305.943 112.153 309.691 112.199 311.382 110.339C308.413 108.883 305.643 107.288 305.031 103.079C303.187 105.832 303.08 109.81 298.839 108.718C293.187 105.402 286.962 103.913 280.538 103.039C279.213 102.861 277.795 102.987 276.69 101.987C275.172 100.134 276.051 98.4199 277.555 97.4271C279.186 96.3483 279.912 94.9122 280.551 93.2907C280.684 92.159 280.844 91.0272 281.543 90.0676C283.853 85.0906 283.307 79.7761 283.461 74.541C283.294 73.6542 283.141 72.7607 282.841 71.9003C281.69 68.1146 281.403 64.1503 280.358 60.3447C278.787 57.8232 277.888 54.9773 276.497 52.3697C275.864 51.1784 275.325 49.8944 273.954 49.312C273.641 49.2657 273.335 49.2194 273.022 49.1929C270.239 49.2922 269.32 51.7078 267.789 53.3558C267.13 53.8522 266.358 54.2029 265.792 54.8317C262.117 59.9212 258.495 65.0371 257.064 71.3047C256.731 71.9533 256.378 72.5952 256.172 73.3034C255.386 76.8111 255.692 80.3188 256.078 83.8331C256.018 84.4222 255.839 84.9913 255.785 85.587C255.466 87.7644 256.498 89.6374 257.097 91.6162C257.516 93.0127 257.936 94.4555 257.363 95.938C255.659 98.5522 254.734 98.764 252.59 96.6991C249.561 93.7804 247.943 90.0676 246.818 86.0701C245.014 79.6636 244.275 72.9195 240.926 66.9961C232.364 51.8667 219.116 43.8122 201.886 43.0379C179.67 42.0319 163.719 53.2301 152.248 71.0333C148.327 77.1222 144.912 83.8794 144.312 91.5832C143.8 98.1353 145.018 104.356 146.749 110.551C148.014 115.078 149.825 119.426 151.529 123.801C152.182 125.482 153.114 127.289 151.436 128.99C150.291 129.877 149.059 129.645 147.927 129.083C144.266 127.269 140.391 125.939 136.756 124.072C128.048 121.088 119.114 119.175 109.913 118.592C104.58 118.255 104.281 118.017 104.274 112.709C104.261 104.085 104.268 95.4615 104.274 86.8378C104.288 86.0039 104.261 85.17 104.434 84.356C104.554 83.992 104.747 83.6677 105.02 83.4029C110.186 79.1209 116.497 76.8243 122.269 73.5814C133.194 67.4462 133.987 55.3016 131.75 46.1087C131.463 44.9241 130.565 44.2821 129.466 43.8718C123.521 42.7665 118.961 45.7778 114.673 49.0804C111.431 51.5755 110.026 55.3612 108.948 59.2196C107.523 64.3422 107.137 69.6435 106.052 74.8256C105.819 75.6066 105.22 76.1294 104.72 76.7184C103.109 79.1805 103.595 81.9601 103.535 84.6406C103.455 88.2144 103.569 91.7883 103.482 95.3622C103.462 96.2358 103.369 97.2087 102.377 97.4999C101.032 97.897 100.739 96.7124 100.346 95.8586C98.0029 90.6963 95.8059 85.4678 93.6955 80.2129C89.5878 69.981 81.4124 66.3343 71.0666 66.0431C70.1879 66.0166 69.3623 66.3343 68.61 66.7777C68.1973 67.0954 67.7978 67.4263 67.5049 67.8698C65.015 78.5848 71.8589 91.0537 82.1647 94.5879C84.2751 95.3093 86.4122 95.9843 88.6091 96.2756C93.5756 96.9308 98.0961 98.6912 102.324 101.299C102.876 101.875 103.302 102.517 103.435 103.324C103.615 106.905 103.535 110.492 103.502 114.066C103.469 117.725 102.896 118.381 99.1479 118.5C84.6945 118.963 71.2997 123.073 58.6238 129.83C52.7852 132.941 47.6389 137.018 42.3196 140.87C21.009 160.036 9.66461 184.041 9.7445 212.46C9.79776 232.447 16.2489 251.005 28.4853 267.26C29.7436 268.934 31.7741 270.575 30.1697 273.143C29.8901 273.388 29.5705 273.58 29.2243 273.719C26.8409 275.698 23.379 274.235 21.0223 276.254C20.7427 276.605 20.503 276.982 20.3565 277.419C21.3152 281.443 23.4922 284.931 25.2698 288.59C25.5094 289.027 25.7757 289.457 26.0553 289.874C28.219 292.82 30.4626 295.705 32.9059 298.432C33.2255 299.014 33.6382 299.537 34.1109 300.007C38.678 303.879 42.9587 308.187 49.0503 309.762C49.6894 310.212 50.3951 310.517 51.1474 310.749C52.5522 311.53 54.0035 311.496 55.4748 311.02C60.6277 309.345 65.9137 310.12 71.1532 310.199C72.5379 310.219 73.683 311.079 74.948 311.523C76.0664 311.973 76.872 312.827 77.6842 313.667C78.2634 314.706 78.9891 315.659 79.5616 316.513C78.8293 315.62 78.2767 314.408 77.4179 313.396C76.3527 312.165 74.7815 311.357 74.2955 309.643C73.723 306.837 71.08 304.58 72.1052 301.351C74.0625 299.63 76.1263 300.709 78.097 301.218C87.3908 303.621 96.7912 305.183 106.438 304.812C111.777 304.607 117.057 303.885 122.329 302.985C124.187 302.668 126.271 301.801 127.855 303.786C128.794 305.48 128.847 307.34 128.854 309.2C128.9 321.192 128.92 333.185 128.84 345.17C128.827 346.878 128.96 348.652 127.942 350.194C126.797 351.352 125.332 351.484 124.4 350.293C120.532 345.356 114.773 342.9 110.006 339.161C109.354 334.105 110.645 330.008 116.231 327.844C113.588 325.898 110.785 324.634 110 320.438C108.122 324.118 106.351 326.487 103.036 327.354C109.161 331.477 110.652 334.621 108.582 338.532C107.283 339.287 105.885 338.936 104.574 338.718C94.9337 337.116 86.7118 340.392 79.2287 346.031C75.1011 349.141 74.4819 349.135 71.8655 344.82C63.324 330.716 46.2542 329.948 36.3811 343.211C36.1614 343.509 35.9417 343.807 35.7154 344.105C34.8233 345.263 34.1043 346.712 32.2601 346.481C30.2895 346.229 29.7902 344.595 29.2376 343.099C28.3788 340.782 27.5932 338.426 26.5547 336.189C22.9596 328.446 19.4711 320.63 12.8602 314.786C11.2691 313.383 9.64463 312.033 7.6607 311.245C4.71143 310.073 3.09366 311.04 2.82736 314.183C2.60766 316.765 2.76079 319.366 2.75413 321.96C2.74081 332.086 2.78076 342.219 2.7275 352.345C2.72084 354.31 2.88062 356.362 0.983237 357.739L0.969922 357.752Z" fill="url(#paint0_linear_126_346)"/>
<path d="M126.277 350.372C126.97 349.26 126.97 348.023 126.97 346.785C126.956 332.45 126.936 318.108 126.923 303.773C127.216 301.748 129.02 301.569 130.445 301.026C134 299.663 137.682 298.683 141.203 297.214C142.814 296.539 144.252 295.705 145.444 294.428C146.543 293.839 147.628 294.156 148.666 294.54C155.137 296.963 161.755 298.941 168.346 301.006C169.178 301.265 169.944 301.648 170.623 302.204C171.701 304.124 172.6 306.142 174.497 307.499C175.569 308.267 176.035 309.425 175.663 310.775C173.479 318.75 179.91 326.427 187.04 329.366C198.611 334.138 210.501 338.089 222.451 341.848C226.759 343.205 231.479 343.708 234.994 347.03C235.473 348.585 234.801 349.479 233.403 350.18C229.708 352.04 226.785 354.84 224.142 357.957C203.304 357.957 182.46 357.977 161.622 357.937C151.076 357.911 140.524 357.758 129.979 357.666C127.396 355.912 124.926 354.098 126.271 350.372H126.277Z" fill="#ECCD00"/>
<path d="M125.353 350.266C126.817 352.582 128.289 354.899 129.061 357.559C127.949 357.625 126.831 357.744 125.719 357.744C84.6954 357.751 43.6786 357.751 2.65512 357.744C1.78299 357.744 0.91752 357.678 0.0453891 357.645C0.0254166 342.463 -0.0145292 327.28 0.00544326 312.098C0.00544326 308.206 1.22376 307.306 5.13171 308.478C11.5562 310.41 15.817 315.103 19.3721 320.391C23.7327 326.877 27.1014 333.899 29.6712 341.285C30.104 342.529 30.0374 344.488 31.3556 344.766C32.9267 345.097 33.1464 343.032 33.8588 342C43.7385 327.578 64.39 328.538 72.6187 343.965C74.0301 346.612 74.6026 346.725 76.9594 344.806C85.8738 337.519 95.8866 334.157 107.437 337.731C108.383 337.512 108.995 338.24 109.754 338.551C116.252 340.749 121.565 344.508 125.353 350.272V350.266Z" fill="#EEEEEE"/>
<path d="M318.759 327.44C323.812 336.95 324.757 347.255 324.704 357.752C292.142 357.778 259.58 357.811 227.018 357.838C225.913 356.541 226.612 355.561 227.478 354.462C228.883 352.682 230.82 351.484 232.711 350.544C234.455 349.677 235.447 348.572 236.099 346.924C236.718 346.355 237.357 345.819 238.216 345.627C238.875 345.534 239.481 345.673 240.04 346.024C241.012 347.467 242.224 348.228 244.115 348.301C246.824 348.407 249.381 349.247 251.844 350.525C255.499 352.424 256.558 351.934 257.962 348.102C262.41 335.971 269.726 326.103 280.645 318.889C287.728 314.21 295.065 311.622 303.46 314.753C308.353 316.573 312.001 320.094 315.237 324.025C316.295 325.309 317.334 326.553 318.759 327.433V327.44Z" fill="#EEEEEE"/>
<path d="M338.991 357.15C335.529 357.156 332.074 357.176 328.612 357.156C327.906 357.156 326.994 357.348 326.634 356.547C326.255 355.713 327.067 355.23 327.553 354.727C330.722 351.471 334.497 349.241 338.957 348.215C338.971 351.193 338.977 354.171 338.991 357.143V357.15Z" fill="#EEEEEE"/>
<path d="M236.718 347.599C236.639 349.737 235.154 350.717 233.516 351.703C230.92 353.265 228.044 354.608 227.018 357.838C226.06 357.878 225.101 357.917 224.149 357.957C223.956 354.343 227.165 353.231 229.182 351.279C230.76 349.75 233.183 349.307 234.495 347.381C235.3 346.818 236.053 346.805 236.725 347.599H236.718Z" fill="#EEEEEE"/>
<path d="M239.708 346.732C239.215 346.732 238.722 346.732 238.23 346.732C236.865 347.44 235.54 346.818 234.322 346.415C219.316 341.345 204.097 336.878 189.31 331.173C185.196 329.584 181.561 327.473 178.598 324.098C175.323 320.365 174.091 316.083 174.963 311.41C175.41 309.028 174.804 307.916 172.793 307.188C170.556 306.374 170.23 305.083 171.082 302.886C173.832 295.811 178.325 289.669 181.628 282.905C183.265 279.55 186.022 276.942 187.686 273.64C188.751 271.522 190.629 272.217 191.88 272.753C195.182 274.156 197.346 273.415 199.902 270.847C203.79 266.949 208.637 265.916 214.249 267.637C228.456 271.985 242.444 276.975 256.531 281.688C261.211 283.256 261.198 283.23 261.751 278.524C262.689 270.556 262.003 262.534 262.663 254.519C263.375 245.949 262.703 237.265 263.455 231.686C262.549 245.413 262.563 262.21 261.691 278.974C261.484 282.945 260.912 283.223 257.104 281.932C243.156 277.2 229.249 272.376 215.201 267.921C208.184 265.698 202.872 267.405 198.158 272.422C197.233 273.408 196.421 274.235 195.009 273.56C190.835 271.562 187.593 272.342 185.469 276.631C182.22 274.811 179.637 272.455 178.951 268.583C179.85 266.274 181.148 264.169 182.493 262.091C193.465 245.161 198.444 226.577 197.466 206.517C196.96 196.106 194.596 186.007 190.622 176.317C190.029 174.868 189.044 173.465 189.483 171.744C190.196 170.361 191.474 169.567 192.779 168.898C195.289 167.608 195.455 165.774 194.63 163.339C191.987 155.576 192.1 155.503 199.736 152.882C205.568 150.883 211.56 149.335 217.165 146.687C219.103 146.879 220.787 146.277 222.624 145.602C228.689 143.371 234.575 140.373 241.252 140.188C243.502 140.347 243.822 142.319 244.501 143.808C249.567 154.934 247.677 152.869 259.414 155.562C272.536 158.58 285.192 162.809 296.529 170.282C299.013 171.916 301.349 173.73 303.5 175.801C304.884 177.138 305.876 178.614 306.103 180.54C312.554 194.63 313.14 209.733 313.513 224.797C313.892 239.986 313.732 255.188 312.913 270.37C314.658 272.799 313.825 276.929 311.176 278.961C310.31 279.623 309.165 279.887 308.353 280.847C309.258 282.859 313.932 282.958 311.395 286.625C310.35 296.274 309.305 305.917 308.266 315.567C307.374 316.142 306.589 316.037 305.583 315.587C294.838 310.808 285.97 314.7 277.369 321.252C268.242 328.208 262.183 337.182 258.056 347.639C256.371 351.908 255.512 352.457 251.478 350.326C248.675 348.844 245.686 348.526 242.717 348.056C241.492 347.864 240.546 347.54 239.694 346.732H239.708Z" fill="#ECCD00"/>
<path d="M108.861 116.753C118.981 116.964 128.714 119.182 138.154 122.742C139.093 125.072 137.242 125.767 135.804 126.667C132.023 129.036 128.301 131.445 125.465 135.019C117.669 144.828 119.62 154.179 129.007 162.227C129.939 163.028 131.037 163.65 132.003 164.424C135.911 167.528 135.691 171.513 131.39 174.027C127.955 176.033 124.02 176.953 120.445 178.68C114.88 181.38 109.966 184.789 106.864 190.328C104.973 193.704 104.314 197.271 105.16 201.043C106.391 206.53 110.199 209.641 116.045 209.859C118.794 209.965 121.477 209.998 123.927 211.54C126.038 212.87 127.689 214.591 127.875 217.066C128.141 220.62 130.085 222.374 133.341 223.122C133.94 223.261 134.519 223.499 135.105 223.718C138.154 224.836 140.671 226.57 141.31 229.959C142.022 233.758 140.478 236.782 137.369 238.913C134.166 241.104 131.217 243.493 129.08 246.776C128.408 247.815 127.575 248.755 127.695 250.112C127.702 250.701 127.675 251.29 127.436 251.839C126.89 252.746 126.104 253.56 126.663 254.797C127.542 256.73 126.397 257.981 125.099 259.159C123.335 260.125 123.687 261.025 125.066 262.117C128.634 264.937 132.555 267.213 136.397 269.616C137.768 270.476 139.246 271.25 138.594 273.309C137.202 274.752 135.118 274.904 133.541 276.002C127.356 274.798 121.704 271.846 115.785 270.589C117.842 272.018 120.285 273.335 122.582 274.891C123.681 275.632 125.032 276.201 125.119 277.829C125.378 279.583 124.593 280.979 123.461 282.157C121.917 283.766 121.544 285.705 121.484 287.796C121.337 292.747 123.727 295.182 128.574 294.11C133.414 293.045 138.341 294.037 143.127 292.919C144.439 293.395 145.557 294.051 145.657 295.632C145.224 297.419 143.72 298.081 142.262 298.716C137.302 300.861 132.202 302.601 126.916 303.786C110.399 308.048 93.9551 307.618 77.571 303.051C75.9133 302.588 74.3089 301.774 72.498 302.237C69.9615 302.29 70.0747 300.477 70.0281 298.783C70.9135 296.618 72.0387 294.56 73.0772 292.462C76.7921 284.977 73.9826 273.653 62.9711 272.62C60.8874 272.422 58.7703 272.25 56.6931 271.826C47.9052 270.039 44.0772 263.573 46.7735 255.003C47.7921 251.766 49.6429 249.02 51.8332 246.438C54.7092 243.043 57.7916 239.767 59.4893 235.551C60.7742 232.355 61.5464 229.092 59.0565 226.087C56.4868 222.99 53.1314 222.255 49.2967 223.175C47.9718 223.493 46.6403 223.81 45.2622 223.87C40.622 224.069 39.6766 223.446 38.152 219.111C36.2014 213.565 33.1256 212.103 27.4734 213.969C24.4975 214.955 21.981 216.841 19.1183 218.053C12.5407 220.826 8.60608 217.867 9.12536 210.766C9.65796 203.492 14.1917 198.667 19.065 194.088C23.9117 189.534 30.0099 186.874 35.8152 183.789C38.4583 182.386 41.0813 180.957 42.9987 178.594C46.1344 174.742 45.5818 171.393 41.4142 168.673C36.9537 165.761 36.1614 162.737 38.6047 157.985C39.397 156.443 40.3557 154.993 41.2211 153.497C43.1518 150.142 43.5979 146.76 41.6339 143.285C40.9881 142.147 40.622 141.035 41.1812 139.778C57.7384 125.681 76.7522 117.593 98.6686 116.792" fill="#0BD4BC"/>
<path d="M306.109 180.533C290.784 165.265 271.084 159.6 250.626 155.695C248.269 155.245 246.951 154.245 246.072 152.035C244.621 148.375 242.843 144.841 241.199 141.247C239.628 140.34 238.776 139.003 238.203 137.256C236.439 131.856 235.074 126.343 233.33 120.935C232.431 118.149 232.97 116.13 235.693 114.363C241.558 110.545 243.549 104.515 241.245 98.6515C240.167 95.8983 238.483 93.6812 235.347 93.0193C234.402 92.7281 233.536 92.1126 232.458 92.3773C227.591 93.2179 225.907 97.1028 224.122 100.915C223.23 102.821 223.517 105.826 220.594 105.985C217.958 106.13 217.625 103.337 216.579 101.643C215.361 99.6641 213.743 98.7111 211.42 98.5589C205.588 98.1882 199.816 97.3146 194.15 95.8652C192.26 95.3821 190.515 95.3887 188.804 96.5204C186.501 98.0492 185.003 97.1822 184.504 94.654C184.171 92.9796 183.139 92.1457 181.728 91.464C174.205 87.8438 167.081 83.6279 160.969 77.8568C158.779 75.7919 157.374 76.1956 156.276 79.0745C153.739 85.7259 153.806 92.6156 154.685 99.545C155.637 107.037 159.445 113.668 161.196 120.922C163.679 126.223 165.909 131.637 168.579 136.852C169.191 138.057 169.664 139.354 168.639 140.631C167.068 141.935 165.616 141.373 164.305 140.241C160.73 137.163 156.868 134.483 152.887 131.968C151.669 131.194 150.67 130.327 151.216 128.679C149.465 123.927 147.615 119.208 145.983 114.416C141.643 101.636 140.804 89.4587 147.182 76.4603C154.359 61.8339 164.844 51.463 179.377 45.0697C203.75 34.348 232.89 44.9373 243.529 67.883C245.793 72.7607 246.678 78.009 247.95 83.158C249.115 87.8835 250.706 92.4171 254.294 95.938C254.76 96.3947 255.419 98.1419 256.318 96.1829C259.414 93.7341 260.452 97.2948 262.39 98.2279C263.142 98.5655 263.928 98.7772 264.76 98.7905C265.938 98.903 267.01 98.0426 268.215 98.4132C270.019 99.6575 272.063 99.7104 274.14 99.5979C275.418 99.5251 276.251 100.319 277.109 101.067C283.74 101.305 290.205 102.285 296.163 105.429C297.335 106.044 298.773 106.362 299.305 107.824C298.586 109.784 298.307 111.531 300.97 112.298C301.795 112.537 302.588 113.192 302.861 113.993C303.819 116.845 305.464 116.958 307.661 115.396C309.798 115.005 310.377 116.878 311.276 118.043C326.175 137.309 324.997 164.133 306.089 180.527L306.109 180.533Z" fill="#242424"/>
<path d="M151.216 128.672C157.015 132.656 162.814 136.641 168.612 140.618C172.041 139.209 171.968 142.855 173.605 144.033C174.651 145.278 176.461 145.714 177.14 147.349C177.427 148.269 177.573 149.209 178.392 149.924C183.825 154.709 186.994 161.095 190.555 167.184C191.367 168.567 192.033 170.096 190.502 171.526C205.428 205.908 201.933 238.331 180.01 268.788C177.853 269.861 177.127 267.981 176.235 266.829C172.294 261.747 168.239 256.743 164.145 251.779C162.9 250.264 161.529 247.365 159.471 248.397C157.634 249.317 159.392 251.985 159.758 253.824C160.171 255.876 161.009 257.829 161.615 259.84C162.068 261.33 162.348 262.786 160.923 263.904C159.498 265.016 158.047 264.434 156.749 263.666C151.409 260.476 145.644 258.153 140.065 255.446C135.904 253.427 131.45 252.289 127.136 250.734C126.55 250.522 126.071 250.112 125.618 249.681C127.449 244.903 130.551 241.144 134.879 238.404C137.755 236.584 140.098 234.426 139.586 230.68C139.053 226.782 135.871 225.604 132.675 224.909C128.574 224.016 125.791 222.401 126.071 217.589C126.184 215.663 124.826 214.181 123.108 213.162C121.344 212.116 119.46 211.619 117.416 211.719C112.063 211.983 107.616 210.488 104.86 205.524C101.738 199.898 102.257 194.425 105.413 188.998C109.94 181.215 117.516 177.615 125.458 174.517C126.843 173.975 128.288 173.558 129.619 172.902C133.787 170.844 134.04 168.045 130.252 165.437C127.775 163.736 125.538 161.843 123.621 159.533C114.26 148.269 119.533 136.799 128.128 129.691C131.25 127.11 134.792 125.032 138.141 122.722C142.495 124.701 146.842 126.68 151.196 128.652L151.216 128.672Z" fill="#36A32C"/>
<path d="M41.1812 139.751C45.9679 145.781 46.1677 148.779 42.2198 155.509C41.4675 156.787 40.622 158.018 39.9695 159.348C38.2319 162.876 38.9576 165.086 42.3862 167.058C47.892 170.222 48.6775 174.994 44.49 179.838C41.0547 183.816 36.2347 185.722 31.7209 187.985C23.905 191.904 17.2542 197.013 12.6539 204.544C11.4022 206.59 10.4968 208.747 10.104 211.064C9.37836 215.326 12.8602 218.198 16.9945 216.894C20.8093 215.69 23.8651 212.963 27.7397 211.825C33.9379 210.005 38.3584 212.195 39.8564 218.35C40.5953 221.368 42.3063 222.493 45.2223 222.037C47.0598 221.745 48.8573 221.223 50.6881 220.912C57.8715 219.681 63.9365 226.074 62.3187 233.083C60.9872 238.88 57.1192 243.096 53.4177 247.411C50.1954 251.17 47.7521 255.201 47.9119 260.383C48.0584 265.195 50.069 268.127 54.7092 269.358C57.6851 270.145 60.7875 270.635 63.8699 270.873C73.6897 271.628 79.1888 282.29 75.4806 291.807C74.4953 294.328 73.2171 296.764 71.0334 298.551C69.0295 299.08 68.8564 297.108 67.8644 296.261C67.5515 295.844 67.1854 295.48 66.7526 295.169C65.3546 293.117 63.8566 291.099 62.838 288.842C62.2322 287.505 61.2402 286.949 60.0352 286.473C57.4654 282.938 53.7705 280.787 50.1688 278.517C49.4964 278.266 48.7841 278.18 48.0917 278.008C43.4048 276.108 38.5049 275.268 33.4851 274.871C32.0871 274.758 30.5692 274.586 29.3109 273.726C29.0446 273.401 28.9913 273.044 29.1511 272.654C29.5439 270.754 28.0193 269.755 27.1006 268.53C0.337493 232.871 1.95526 183.108 31.1018 149.619C34.1775 146.085 37.8192 143.047 41.1945 139.778L41.1812 139.751Z" fill="#36A32C"/>
<path d="M101.485 101.987C97.7033 100.379 93.8353 99.0221 89.7542 98.453C71.8855 95.938 65.0083 85.3421 65.0882 68.0882C65.0882 67.2212 65.1348 66.3608 65.1614 65.5004C69.8483 65.4805 73.8628 67.5058 77.8306 69.6567C79.8545 71.2517 81.419 73.3762 83.7558 74.6006C89.8807 82.2712 97.0308 89.2072 101.119 98.3471C101.644 99.5251 102.79 100.637 101.478 101.987H101.485Z" fill="#0EB301"/>
<path d="M129.999 41.8466C131.011 41.9061 132.455 40.1059 132.961 42.3694C134.879 50.9203 136.11 59.4314 131.19 67.5388C128.934 71.2583 125.791 73.9321 121.943 75.9044C116.644 78.6179 111.364 81.3711 106.078 84.1111C105.546 83.5684 104.953 82.933 105.206 82.1852C106.578 78.1348 107.117 73.8858 108.934 69.9082C111.338 64.6533 114.347 59.7689 117.263 54.8317C119.939 50.3048 123.308 46.2213 127.515 42.932C128.228 42.3032 129.253 42.4025 129.999 41.8532V41.8466Z" fill="#0EB301"/>
<path d="M47.8986 311.88C42.2131 309.127 36.927 305.858 32.9725 300.801C32.4532 299.736 33.1722 299.173 33.9112 298.71C38.9443 295.566 44.5232 293.548 49.9091 291.138C52.0995 290.159 53.9569 291.191 55.8543 292.244C59.6757 294.355 62.8646 297.26 65.9071 300.272C68.3837 302.727 68.0242 303.932 64.8685 305.593C59.4893 308.425 53.7106 310.199 47.8986 311.887V311.88Z" fill="#B0D606"/>
<path d="M268.075 99.7237C266.917 100.22 265.725 100.518 264.447 100.359C262.05 97.1359 263.688 93.4363 263.202 89.9948C263.235 81.7682 264.806 79.6504 272.869 77.2016C275.485 76.4074 277.835 75.044 280.332 74.0049C281.63 73.4689 282.955 72.3901 284.419 73.6939C286.17 79.7761 284.939 85.7194 283.574 91.6626C279.266 95.9844 274.253 98.9626 268.075 99.7303V99.7237Z" fill="#36A32C"/>
<path d="M81.8451 75.9375C80.3738 74.4682 78.8958 73.0056 77.4245 71.5363C73.976 69.0081 69.9282 67.4462 66.4796 64.9114C69.8217 64.8981 73.1637 64.7724 76.5058 64.8915C86.4055 65.2423 91.7515 71.4833 95.5063 79.657C97.9496 84.9781 99.9069 90.4911 102.031 97.083C103.036 89.0682 101.558 82.0528 103.009 75.183C105.399 77.7112 104.281 80.8483 104.148 83.6279C103.868 89.2998 104.008 94.9585 103.848 100.611C103.409 102.57 102.743 102.662 101.711 100.908C99.2744 96.7719 96.8311 92.6355 93.7753 88.9027C90.0471 84.356 86.8848 79.293 81.8518 75.9309L81.8451 75.9375Z" fill="#0EB301"/>
<path d="M239.708 346.732C243.975 346.58 248.196 347.037 251.991 349.035C255.073 350.663 256.085 349.333 257.057 346.659C261.131 335.488 268.042 326.348 277.609 319.22C280.285 317.228 283.148 315.5 286.217 314.144C293.826 310.782 301.163 311.437 308.28 315.553C312.088 319.24 316.648 322.271 318.765 327.44C315.516 327.394 314.178 324.753 312.461 322.734C305.77 314.852 295.79 312.674 286.563 317.135C276.99 321.761 269.833 328.909 264.34 337.864C261.997 341.682 260.259 345.759 258.641 349.902C257.363 353.172 255.739 353.867 252.563 352.338C249.514 350.869 246.465 349.611 242.99 349.591C241.192 349.578 239.907 348.691 239.701 346.732H239.708Z" fill="#EEEEEE"/>
<path d="M129.999 41.8466C129.513 42.2039 129.02 42.568 128.534 42.9253C118.488 52.694 111.877 64.5275 107.297 77.6053C106.445 80.0408 105.925 82.6087 104.567 84.8656C103.422 84.9648 103.529 84.1243 103.522 83.436C103.495 80.4379 103.396 77.4332 104.607 74.5873C104.834 69.5177 105.652 64.5341 106.891 59.6233C109.893 47.6773 117.523 41.8466 129.999 41.8466Z" fill="#0EB301"/>
<path d="M281.623 59.5108C283.068 63.6208 283.927 67.8698 284.539 72.1717C281.417 74.6204 277.675 75.9242 274.153 77.6318C272.043 78.651 269.953 79.7165 267.829 80.7225C264.826 82.1455 264.553 81.9668 264.001 78.4524C264.174 70.0604 269.234 65.368 276.397 62.2641C277.888 61.6221 279.18 60.6558 280.545 59.8087C280.884 59.6564 281.244 59.5638 281.61 59.5175L281.623 59.5108Z" fill="#36A32C"/>
<path d="M31.5944 300.047C29.3375 296.83 26.3949 294.117 24.6639 290.53C25.1233 289.014 26.4615 288.584 27.7397 288.121C31.3547 286.81 34.9831 285.539 38.6979 284.553C41.9601 283.686 49.2234 286.598 50.8612 289.391C51.7466 290.907 50.8412 291.714 49.6029 292.264C43.6178 294.898 37.8724 298.074 31.6011 300.053L31.5944 300.047Z" fill="#B0D606"/>
<path d="M171.495 37.9616C170.223 37.8094 169.924 36.8696 169.791 36.0886C168.985 31.3896 166.282 28.6761 161.549 27.8885C160.843 27.7694 159.951 27.4782 159.851 26.6443C159.711 25.4861 160.823 25.2412 161.588 25.1089C166.189 24.308 168.759 21.621 169.571 17.1007C169.711 16.3131 169.964 15.2277 171.029 15.2012C172.127 15.1748 172.394 16.2734 172.513 17.0544C173.239 21.7137 176.128 24.0764 180.596 24.9037C181.308 25.0361 182.067 25.3802 182.3 26.1744C182.513 26.9223 181.927 27.4517 181.361 27.551C176.022 28.4511 173.206 31.7139 172.267 36.8564C172.187 37.2799 171.734 37.6307 171.501 37.9616H171.495Z" fill="#F0F0F0"/>
<path d="M58.3708 113.199C57.9447 114.132 57.0726 114.443 56.2471 114.588C51.9463 115.316 49.4365 117.725 48.6908 122.034C48.5377 122.934 48.278 124.198 47.0464 124.225C45.7815 124.251 45.5618 122.967 45.3887 122.074C44.6098 117.951 42.2264 115.561 38.0655 114.787C37.1667 114.621 35.8751 114.396 35.9151 113.132C35.9484 111.908 37.2266 111.656 38.132 111.511C42.3928 110.809 44.5299 108.188 45.3354 104.158C45.5152 103.258 45.7216 101.941 46.9199 101.921C48.1649 101.901 48.318 103.251 48.5044 104.138C49.4098 108.367 51.953 110.77 56.2204 111.531C57.1192 111.69 58.231 111.941 58.3575 113.199H58.3708Z" fill="#F0F0F0"/>
<path d="M311.409 286.618C310.703 283.336 307.567 283.633 305.357 282.574C304.498 282.164 303.08 282.191 302.987 281.105C302.854 279.636 304.452 279.51 305.39 279.378C310.696 278.61 312.254 274.884 312.927 270.364C314.485 268.636 315.41 269.708 315.69 271.231C316.535 275.897 319.165 278.617 323.892 279.371C324.597 279.484 325.35 279.848 325.583 280.635C325.802 281.383 325.216 281.913 324.651 282.005C318.639 282.938 315.976 287.022 315.097 293.097C312.467 291.066 312.774 288.385 311.415 286.618H311.409Z" fill="#F0F0F0"/>
<path d="M307.674 115.402C307.002 117.851 306.422 120.333 304.891 122.782C302.767 120.181 303.2 116.369 301.043 114.522C298.879 112.662 295.597 112.093 292.448 110.809C294.605 108.778 297.162 108.738 299.319 107.818C302.461 106.66 302.122 103.456 303.293 101.14C303.666 100.399 303.713 99.2538 304.758 99.2207C305.856 99.181 306.05 100.319 306.183 101.087C306.955 105.667 309.684 108.155 314.198 108.989C315.07 109.148 316.455 109.294 316.362 110.558C316.275 111.716 314.884 111.65 314.032 112.06C311.868 113.086 309.065 112.907 307.681 115.402H307.674Z" fill="#EFEFEF"/>
<path d="M110.672 338.651C109.154 340.458 108.948 338.605 108.355 337.831C107.982 331.444 103.142 329.551 98.136 328.294C98.1826 327.03 98.7751 326.752 99.361 326.619C104.094 325.547 107.516 323.198 108.222 318.015C108.315 317.314 108.635 316.427 109.467 316.328C110.632 316.182 110.872 317.287 111.012 318.055C111.87 322.721 114.593 325.435 119.293 326.282C120.066 326.421 121.178 326.666 121.044 327.817C120.951 328.644 120.059 328.982 119.353 329.068C113.628 329.763 111.731 333.827 110.665 338.658L110.672 338.651Z" fill="#F0F0F0"/>
<path d="M255.359 70.6693C257.104 64.1503 260.079 58.3394 265.166 53.733C268.202 53.9448 268.048 56.6186 268.847 58.5181C269.38 59.7888 269.154 61.1786 269.14 62.5222C269.267 66.2417 266.411 68.9949 265.871 72.5555C265.625 74.1969 265.186 75.8845 264.673 77.506C263.382 78.6245 261.957 77.6318 260.599 77.7509C257.17 76.6192 255.359 74.3028 255.353 70.6693H255.359Z" fill="#36A32C"/>
<path d="M31.5944 300.047C36.9736 297.558 42.3595 295.076 47.7321 292.568C48.6043 292.164 49.8892 291.986 50.0423 290.927C50.242 289.524 48.6708 289.431 47.8586 288.789C43.7376 285.506 39.4436 284.765 34.4837 287.174C31.3947 288.67 27.9527 289.438 24.6639 290.536C24.4376 290.219 24.2112 289.907 23.9915 289.59C24.3177 288.16 25.1699 287.227 26.5746 286.737C29.5572 285.705 32.4998 284.533 35.1095 284.07C29.97 280.999 23.1926 280.463 17.9931 276.34C17.1476 275.268 17.7601 274.977 18.772 274.897C21.7213 275.063 24.7571 274.48 27.6132 275.764C27.4468 274.613 27.6265 273.507 28.6385 272.673C28.8049 272.627 28.978 272.614 29.1511 272.627C29.2177 272.819 29.3042 273.011 29.4041 273.183C33.8912 277.935 39.5567 280.966 45.2422 283.997C47.2129 285.043 48.8706 285.573 50.0756 283.091C50.4617 282.68 50.941 282.455 51.5069 282.442C53.4176 282.899 53.6906 284.547 54.11 286.056C55.4215 290.755 56.5333 291.516 61.36 290.947C63.091 291.264 63.4971 292.601 63.9232 294.057C64.6288 296.466 65.5276 298.809 67.9443 300.126C68.5568 300.503 69.2558 300.709 69.8417 301.132C71.9321 303.826 73.4833 306.89 75.434 309.69C76.2129 310.901 76.9985 312.119 77.7774 313.33C78.1036 313.753 78.0703 314.144 77.6576 314.495C76.9585 313.853 76.2595 313.204 75.5538 312.562C74.189 311.9 72.771 311.04 71.8589 310.034C68.6966 306.546 65.3745 306.877 61.5664 308.677C57.958 310.385 54.1899 311.702 50.1022 311.721C49.3699 311.768 48.6376 311.821 47.9052 311.867C52.1527 308.485 57.472 307.406 62.2921 305.255C67.0988 303.111 67.2386 302.74 63.2108 299.385C53.3511 291.152 53.3244 291.105 41.6139 296.546C38.7112 297.896 35.5889 298.836 32.9858 300.788C32.4599 300.662 31.8607 300.662 31.6077 300.04L31.5944 300.047Z" fill="#343434"/>
<path d="M274.746 45.5925C277.622 49.9474 279.712 54.6861 281.623 59.5108L281.39 59.7888C277.828 63.2171 273.241 65.1099 269.174 67.7771C267.409 68.9353 267.003 67.8565 267.369 66.2416C267.662 64.9378 267.935 63.6208 268.408 62.3567C268.375 55.9634 270.325 50.318 274.746 45.5925Z" fill="#36A32C"/>
<path d="M17.9865 276.34C25.3563 277.233 31.834 280.377 39.1706 284.315C33.4718 286.294 28.7316 287.935 23.9849 289.583C21.3884 285.433 19.1449 281.132 17.9865 276.34Z" fill="#B0D606"/>
<path d="M50.0956 311.728C55.335 309.504 60.5811 307.287 65.8139 305.05C67.3518 304.388 68.6966 304.534 69.875 305.785C71.8989 307.936 74.2623 309.809 75.5538 312.575C69.2758 311.47 62.9911 311.635 56.6932 312.383C54.4496 312.648 52.2393 312.516 50.1022 311.728H50.0956Z" fill="#B0D606"/>
<path d="M253.788 84.0052C253.802 80.0342 253.575 76.0434 254.807 72.1783C259.5 76.3611 266.151 79.4055 263.928 87.6254C263.149 88.9292 264.454 91.2721 262.45 91.742C260.492 92.2053 259.154 90.3786 257.929 89.1079C256.418 87.5394 255.233 85.6598 253.795 84.0052H253.788Z" fill="#36A32C"/>
<path d="M262.117 99.8163C260.073 98.7773 258.748 96.6131 256.325 96.1697C255.579 92.6289 254.827 89.0814 254.081 85.5406C259.573 87.6453 264.021 93.3701 263.575 97.7514C263.475 98.7111 263.588 99.8163 262.117 99.8163Z" fill="#36A32C"/>
<path d="M104.607 74.5807C104.9 77.7641 103.109 80.9476 104.634 84.131C104.947 83.8795 105.253 83.9059 105.539 84.1641L105.652 85.5737C104.008 87.9828 104.66 90.6169 104.634 93.165C104.561 99.5781 104.62 105.991 104.594 112.404C104.594 113.258 105.546 115.68 105.153 116.759C105.02 117.117 103.296 117.156 102.79 116.759C101.598 112.146 103.748 107.58 102.876 103.556C103.023 102.973 102.936 102.384 102.969 101.795C102.983 92.9267 102.996 84.0582 103.016 75.1896C103.395 74.5807 103.988 74.541 104.614 74.5807H104.607Z" fill="#292929"/>
<path d="M105.552 84.1707C105.246 84.1574 104.94 84.1376 104.634 84.1243C108.375 71.1061 114.007 59.0211 122.636 48.4318C124.347 46.3338 126.057 44.2093 128.541 42.9187C128.361 44.4277 127.069 45.1425 126.177 46.1352C116.304 57.1282 109.687 69.8222 106.078 84.0912C105.905 84.1442 105.732 84.1641 105.552 84.1641V84.1707Z" fill="#424242"/>
<path d="M263.501 87.7115C264.653 80.2923 258.575 76.8773 254.8 72.1849C254.713 71.5826 254.694 71.0068 255.359 70.6759C257.11 72.6879 258.868 74.6932 260.619 76.7052C261.777 77.3538 262.862 78.234 264.34 77.8833C264.693 77.8369 264.979 77.9494 265.219 78.2142C264.979 81.027 266.291 80.9078 268.295 79.9283C273.687 77.2942 279.12 74.7528 284.532 72.1717C285.205 72.7342 284.572 73.1975 284.413 73.6939C278.601 76.3875 272.769 79.0282 266.99 81.7881C263.708 83.35 264.613 86.5665 264.254 89.2601C262.816 89.3197 263.222 88.4858 263.495 87.7181L263.501 87.7115Z" fill="#333333"/>
<path d="M102.963 101.795C103.429 102.404 103.395 102.993 102.869 103.556C102.703 103.516 102.537 103.476 102.37 103.443C102.077 102.96 101.778 102.477 101.485 101.994C96.4849 92.159 89.3747 83.8993 81.8451 75.9441C84.355 76.2022 85.4867 78.3002 86.9647 79.8555C93.2427 86.4804 98.2958 94.0055 102.963 101.802V101.795Z" fill="#414141"/>
<path d="M277.123 101.061C275.871 101.087 274.613 101.114 273.361 101.14C272.216 100.306 270.632 101.411 269.1 99.8891C273.454 97.5529 277.169 94.4356 282.142 93.6944C280.471 96.1498 278.8 98.6052 277.129 101.061H277.123Z" fill="#36A32C"/>
<path d="M263.501 87.7115C263.754 88.2277 264.007 88.7439 264.26 89.2601C264.32 92.9598 264.387 96.666 264.447 100.366C263.668 100.18 262.889 100.002 262.11 99.8163C263.468 96.4145 263.189 93.39 260.173 90.8949C258.089 89.1675 256.105 87.3342 254.074 85.5473C253.975 85.0377 253.881 84.5214 253.781 84.0118C257.303 85.3222 258.961 88.9888 262.303 90.9213C262.762 89.6903 263.129 88.7042 263.501 87.7181V87.7115Z" fill="#3D3D3D"/>
<path d="M75.4207 309.703C72.8642 307.492 70.7072 304.931 68.7166 302.211C67.6647 299.947 66.8325 297.684 68.883 295.5C69.5954 296.512 70.3077 297.525 71.0201 298.538C71.5127 299.769 72.0054 300.993 72.4981 302.217C73.6232 304.653 74.8282 307.062 75.414 309.703H75.4207Z" fill="#B0D606"/>
<path d="M28.6318 272.68C28.2989 274.52 29.8568 275.863 30.0365 278.173C26.1419 277.042 22.4536 275.976 18.7654 274.904C22.0542 274.163 25.343 273.421 28.6318 272.68Z" fill="#B0D606"/>
<path d="M266.57 52.3234C268.175 49.815 270.605 48.2994 273.141 46.903C272.802 50.5761 270.618 53.647 269.713 57.1415C269.493 58.0019 268.335 58.035 267.962 57.2937C267.19 55.7583 265.399 54.4147 266.57 52.3234Z" fill="#36A32C"/>
<path d="M266.571 52.3233C266.597 52.5616 266.57 52.8197 266.657 53.0447C267.123 54.3684 267.163 56.4465 268.721 56.4995C270.126 56.5458 269.999 54.4412 270.518 53.283C271.457 51.185 272.276 49.034 273.148 46.9029C273.681 46.4661 274.213 46.0293 274.753 45.5925C272.722 51.2578 270.052 56.698 268.748 62.6082C268.461 62.8465 268.182 62.8332 267.909 62.5883C268.328 59.2329 267.023 56.4002 265.179 53.733C265.226 52.8528 265.678 52.3631 266.577 52.3233H266.571Z" fill="#343434"/>
<path d="M282.136 93.701C278.081 95.1901 274.46 97.5066 270.565 99.6641C271.177 100.975 272.629 100.425 273.354 101.147C271.51 100.981 269.333 102.047 268.075 99.7303C273.028 96.6329 278.294 94.1312 283.574 91.6626C283.094 92.3443 282.615 93.026 282.129 93.701H282.136Z" fill="#36A32C"/>
<path d="M66.4863 64.9114C70.4342 66.6321 74.462 68.2205 77.4246 71.5363C73.0906 70.0141 69.5754 66.8505 65.1615 65.4938C65.6009 65.3019 66.0403 65.1033 66.4797 64.9114H66.4863Z" fill="#414141"/>
<path d="M77.6509 314.508C77.6908 314.117 77.7308 313.733 77.7707 313.343C79.4684 315.17 80.8065 317.201 81.7918 319.432C81.5322 319.591 81.2726 319.749 81.0129 319.915C79.8945 318.115 78.776 316.308 77.6575 314.508H77.6509Z" fill="#484848"/>
<path d="M125.632 249.688C130.458 248.986 134.659 251.045 138.82 252.898C145.271 255.764 151.782 258.537 157.847 262.197C158.466 262.567 159.119 263.004 160.364 262.587C159.272 258.782 157.987 254.976 157.148 251.084C156.689 248.94 154.911 245.962 157.368 244.592C159.878 243.189 161.382 246.313 162.907 247.868C169.245 254.321 174.431 261.727 180.017 268.802C181.554 271.436 184.737 272.938 185.249 276.28C184.923 280.549 181.781 283.508 180.03 287.108C177.713 291.866 174.784 296.321 172.367 301.046C171.921 301.913 171.495 302.86 170.303 302.965C163.433 302.039 157.088 299.312 150.57 297.194C148.939 296.665 147.302 296.142 145.671 295.619C144.699 295.334 143.727 295.043 142.755 294.759C137.129 293.693 131.463 292.853 126.384 289.888C122.782 287.79 121.597 286.228 122.602 284.083C123.548 282.078 126.55 281.363 129.812 282.468C130.185 282.594 130.665 282.746 130.958 283.044C128.321 281.754 125.126 281.112 124.014 277.776C120.891 275.804 117.756 273.871 114.673 271.839C113.901 271.33 112.696 270.701 113.089 269.616C113.575 268.266 115.026 268.755 116.018 268.914C120.925 269.675 125.458 271.694 130.145 273.209C131.084 273.514 132.036 273.765 132.981 274.043C134.286 274.838 135.751 274.196 137.122 274.5C139.592 275.043 138.294 273.501 138.128 272.601C132.522 269.477 126.97 266.254 122.103 262.051C120.905 261.019 118.654 259.973 119.613 258.047C120.505 256.26 122.522 257.862 124.034 257.729C129.033 256.485 132.469 259.754 135.924 261.707C132.069 258.907 126.157 257.531 125.612 250.972C125.625 250.548 125.632 250.118 125.645 249.695L125.632 249.688Z" fill="#FEBBBF"/>
<path d="M170.303 302.965C175.283 294.07 180.269 285.175 185.249 276.287C188.298 271.396 188.318 271.33 194.117 272.667C195.788 273.051 196.873 272.753 198.052 271.515C202.852 266.465 208.411 265.016 215.308 267.193C229.169 271.581 242.903 276.32 256.651 281.019C260.685 282.396 261.038 282.164 261.185 277.809C261.757 260.403 262.29 242.99 262.862 225.577C262.909 224.194 262.536 222.692 263.848 220.905C264.766 224.942 264.254 228.463 264.147 231.931C263.741 245.638 263.235 259.337 262.736 273.044C262.649 275.513 262.23 277.981 262.316 280.437C262.43 283.699 261.284 284.169 258.329 283.137C245.426 278.65 232.458 274.328 219.509 269.973C217.625 269.338 215.681 268.901 213.797 268.266C208.198 266.373 203.404 267.849 199.596 272.051C197.632 274.215 195.741 274.977 193.125 273.779C189.943 272.323 188.265 273.6 186.721 276.499C182.26 284.911 177.58 293.217 172.826 301.476C171.362 304.024 170.783 305.904 174.191 307.175C175.576 307.691 176.342 308.664 175.862 310.378C173.419 319.101 180.349 326.679 186.687 329.326C195.176 332.867 203.924 335.713 212.658 338.572C221.153 341.358 229.701 344.006 238.223 346.712C237.724 347.004 237.218 347.295 236.718 347.586C235.973 347.513 235.234 347.44 234.488 347.368C222.877 343.45 211.26 339.571 199.669 335.6C195.222 334.078 190.775 332.516 186.441 330.696C177.666 327.01 173.519 320.305 174.284 310.894C174.464 308.657 173.179 308.042 171.774 307.393C169.584 306.38 169.231 304.938 170.303 302.946V302.965Z" fill="#2A2A2A"/>
<path d="M175.509 147.753C174.504 146.826 173.505 145.9 172.5 144.973C171.755 143.193 172.9 141.935 173.712 140.565C178.878 131.869 174.238 123.007 164.138 122.299C162.64 122.193 161.169 122.074 159.871 121.213C156.429 112.1 152.361 103.172 152.162 93.1649C152.035 86.7584 153.207 80.6431 155.856 74.7925C156.709 72.9129 157.288 71.7944 159.372 73.8924C166.888 81.477 175.749 87.1026 185.695 91.0206C187.559 91.7553 188.505 92.47 186.707 94.2702C186.235 94.7467 185.729 95.4615 186.674 96.6925C188.571 92.2119 191.727 93.1716 195.295 94.1908C200.788 95.7527 206.493 96.6793 212.219 96.5668C215.381 96.5072 216.979 97.6588 217.984 100.419C218.563 102.014 219.502 103.476 220.641 105.693C222.851 98.5589 224.482 91.6626 232.997 90.7956C233.616 92.5759 232.018 93.4628 231.279 94.5879C229.202 97.7448 227.937 101.114 227.771 104.006C228.696 99.3531 229.741 93.8864 235.42 90.928C240.227 91.9737 243.809 96.5469 244.095 102.378C244.388 108.281 241.998 113.013 236.825 115.972C234.774 117.143 234.408 118.156 235.087 120.326C237.251 127.262 239.182 134.265 241.206 141.247C233.097 143.424 225.414 146.952 217.159 148.666C215.867 145.397 219.549 144.47 220.155 142.101C210.135 146.204 199.869 149.778 188.924 150.936C184.104 151.446 179.224 151.955 175.516 147.753H175.509Z" fill="#FEBBBF"/>
<path d="M175.509 147.753C182.859 150.592 190.202 149.169 197.492 147.567C206.487 145.595 215.035 142.226 224.149 138.514C222.624 142.915 219.715 145.675 217.159 148.666C210.887 151.611 204.183 153.332 197.626 155.43C194.756 156.35 194.097 157.647 195.455 160.189C195.628 160.513 195.708 160.877 195.841 161.221C197.847 166.476 196.072 169.915 190.515 171.539C187.253 164.087 182.766 157.396 177.646 151.095C176.814 150.069 175.656 149.229 175.516 147.759L175.509 147.753Z" fill="#242424"/>
<path d="M110.599 151.366C110.586 156.509 108.315 159.785 103.369 160.539C98.389 161.3 94.268 163.034 90.5199 166.456C87.2044 169.481 82.8371 167.965 81.3325 163.71C80.1009 160.242 80.7334 156.853 82.3778 153.683C83.7159 151.102 84.0089 148.613 82.8172 145.88C81.6854 143.272 82.2912 140.823 84.0288 138.6C86.2857 135.714 88.9753 133.411 92.4772 132.153C97.0442 130.519 100.673 131.928 102.477 136.409C103.842 139.791 105.506 142.862 108.289 145.297C110.206 146.972 110.745 149.229 110.592 151.366H110.599Z" fill="#36A32C"/>
<path d="M124.014 277.776C128.135 279.96 132.262 282.151 136.383 284.335L136.164 284.957C133.274 284.553 130.398 284.057 127.496 283.786C126.197 283.666 124.44 283.541 124.04 285.202C123.681 286.691 125.285 287.154 126.324 287.737C131.55 290.649 137.362 292.217 142.755 294.759C138.554 294.871 134.366 294.719 130.192 295.771C127.01 296.579 123.328 297.459 120.978 294.077C118.568 290.609 119.24 286.803 120.778 283.13C121.59 281.198 123.474 279.881 124.014 277.776Z" fill="#0EB301"/>
<path d="M125.598 250.965C129.273 256.181 134.785 259.371 139.286 263.99C134.2 261.899 129.113 259.814 124.02 257.723C126.41 255.896 124.093 252.991 125.598 250.965Z" fill="#0EB301"/>
<path d="M138.114 272.601C139.392 273.329 140.691 274.03 141.949 274.791C142.628 275.208 143.76 275.499 143.107 276.658C142.608 277.544 141.663 277.538 140.811 277.2C138.187 276.174 135.578 275.096 132.968 274.037C134.752 273.792 136.523 273.521 138.114 272.594V272.601Z" fill="#0EB301"/>
<path d="M159.878 121.207C166.888 119.248 172.487 121.207 176.029 126.865C178.971 131.571 178.192 138.222 174.158 142.968C173.599 143.623 173.06 144.298 172.514 144.966C171.215 143.517 169.917 142.068 168.626 140.618C165.304 134.331 161.855 128.096 159.891 121.2L159.878 121.207Z" fill="#FEA1A3"/>
<path d="M235.413 90.928C229.442 96.3417 227.731 103.423 227.584 111.134C225.674 103.317 228.416 96.805 232.997 90.789C233.836 90.2727 234.628 90.5639 235.42 90.928H235.413Z" fill="#393939"/>
<path d="M50.7746 283.772C50.9344 285.347 51.0942 286.929 51.2872 288.809C48.4578 288.385 46.5538 286.512 44.2769 285.467C42.1398 284.487 40.2158 282.952 38.0055 282.224C33.4119 280.721 30.9819 277.412 29.3974 273.19C36.3545 272.415 42.9254 274.162 49.4298 276.28C51.001 278.577 51.5136 281.059 50.7746 283.766V283.772Z" fill="#B0D606"/>
<path d="M61.3534 291.661C60.6011 295.143 59.3361 294.726 56.5134 293.091C52.2859 290.642 52.3857 286.737 51.5802 282.985C50.455 281.151 49.6428 279.272 50.7679 277.128C54.6892 279.292 58.7569 281.264 61.38 285.129C62.1589 287.306 64.0496 289.497 61.3534 291.661Z" fill="#B0D606"/>
<path d="M61.3533 291.661C61.36 289.484 61.3666 287.307 61.3733 285.129C64.4424 287.637 66.0402 291.33 68.7565 294.123C66.9856 296.268 69.2624 299.286 67.1653 301.357C63.4837 299.16 61.7728 295.791 61.3467 291.661H61.3533Z" fill="#B0D606"/>
<path d="M67.172 301.357C67.931 298.994 66.1201 296.076 68.7631 294.123C68.8031 294.58 68.8497 295.043 68.8896 295.5C68.8364 297.737 68.7765 299.974 68.7232 302.211C68.2039 301.926 67.6913 301.642 67.172 301.357Z" fill="#404040"/>
<path d="M50.768 277.128C51.041 279.08 51.3139 281.032 51.5802 282.985C51.3139 283.243 51.0476 283.508 50.7747 283.766C49.8959 281.35 49.35 278.868 49.4298 276.28C49.8759 276.565 50.3219 276.843 50.768 277.128Z" fill="#414141"/>
<path d="M267.895 62.5883C268.175 62.595 268.455 62.6016 268.734 62.6082C268.661 64.137 267.563 65.5798 268.428 67.519C272.809 64.9048 277.096 62.3435 281.384 59.7888C281.317 61.2647 280.099 61.7875 279.093 62.4427C277.855 63.2502 276.65 64.1569 275.305 64.7194C269.247 67.2609 265.652 71.5429 265.219 78.2076C264.946 78.2076 264.673 78.2009 264.4 78.1943C264.201 78.0553 264.121 77.8899 264.147 77.7112C264.174 77.5193 264.221 77.4266 264.274 77.4266C264.946 72.3504 266.404 67.4594 267.895 62.5817V62.5883Z" fill="#363636"/>
<path d="M264.274 77.4332C264.314 77.6913 264.36 77.9428 264.4 78.2009C264.12 79.4717 263.701 80.4445 262.383 78.9819C261.744 78.2671 261.205 77.4663 260.619 76.7052C261.837 76.9501 263.055 77.195 264.274 77.4332Z" fill="#36A32C"/>
<path d="M221.799 117.58C221.786 125.125 216.18 130.823 208.757 130.843C201.32 130.863 195.029 124.827 194.956 117.613C194.883 110.022 200.908 104.145 208.75 104.151C216.686 104.165 221.819 109.439 221.799 117.58Z" fill="#FEA1A3"/>
<path d="M193.977 100.392C196.587 100.644 198.125 102 198.085 104.634C198.045 107.057 196.667 108.539 194.184 108.619C191.527 108.705 189.936 107.176 189.863 104.634C189.79 102.073 191.401 100.65 193.984 100.386L193.977 100.392Z" fill="#262626"/>
<path d="M167.194 118.288C164.651 117.924 163.186 116.468 163.339 113.86C163.486 111.445 164.957 110.035 167.44 110.068C170.11 110.101 171.628 111.716 171.575 114.238C171.521 116.779 169.864 118.169 167.194 118.281V118.288Z" fill="#272727"/>
<path d="M191.427 119.142C191.787 124.853 186.547 128.427 180.922 126.124C186.268 126.468 189.67 124 191.427 119.142Z" fill="#3B3B3B"/>
<path d="M176.941 111.908C177.24 115.217 176.981 118.665 182.027 118.943C179.677 120.135 178.865 120.148 177.64 118.937C175.549 116.865 175.556 114.469 176.941 111.908Z" fill="#393939"/>
<path d="M164.338 103.695C161.582 103.946 159.312 104.826 158.393 107.858C157.954 103.787 160.423 102.1 164.338 103.695Z" fill="#373737"/>
</g>
<defs>
<linearGradient id="paint0_linear_126_346" x1="169.519" y1="0" x2="169.519" y2="358" gradientUnits="userSpaceOnUse">
<stop stop-color="#B0D606"/>
<stop offset="1" stop-color="#0EB301"/>
</linearGradient>
<clipPath id="clip0_126_346">
<rect x="0.039978" width="338.957" height="358" rx="20" fill="white"/>
</clipPath>
</defs>
</svg>
