<svg width="20" height="20" viewBox="0 0 20 20" fill="none" xmlns="http://www.w3.org/2000/svg">
<path d="M17.5845 5.93877L9.82622 13.6971C9.72614 13.7971 9.72614 13.9594 9.82622 14.0594L9.82842 14.0617C9.9285 14.1617 10.0907 14.1617 10.1908 14.0617L17.9491 6.30337C18.0492 6.2033 18.0492 6.04105 17.9491 5.94098L17.9469 5.93877C17.8468 5.8387 17.6846 5.8387 17.5845 5.93877Z" fill="#1D1D1B" stroke="black" stroke-miterlimit="10"/>
<path d="M2.05417 6.29923L9.81246 14.0575C9.91253 14.1576 10.0748 14.1576 10.1748 14.0575L10.1771 14.0553C10.2771 13.9552 10.2771 13.793 10.1771 13.6929L2.41877 5.93462C2.3187 5.83455 2.15645 5.83455 2.05638 5.93462L2.05417 5.93683C1.9541 6.03691 1.9541 6.19915 2.05417 6.29923Z" fill="#1D1D1B" stroke="black" stroke-miterlimit="10"/>
</svg>
